G04 #@! TF.GenerationSoftware,KiCad,Pcbnew,(6.0.4)*
G04 #@! TF.CreationDate,2022-07-03T15:15:51+02:00*
G04 #@! TF.ProjectId,Klotz,4b6c6f74-7a2e-46b6-9963-61645f706362,0.2*
G04 #@! TF.SameCoordinates,Original*
G04 #@! TF.FileFunction,Soldermask,Bot*
G04 #@! TF.FilePolarity,Negative*
%FSLAX46Y46*%
G04 Gerber Fmt 4.6, Leading zero omitted, Abs format (unit mm)*
G04 Created by KiCad (PCBNEW (6.0.4)) date 2022-07-03 15:15:51*
%MOMM*%
%LPD*%
G01*
G04 APERTURE LIST*
G04 Aperture macros list*
%AMRoundRect*
0 Rectangle with rounded corners*
0 $1 Rounding radius*
0 $2 $3 $4 $5 $6 $7 $8 $9 X,Y pos of 4 corners*
0 Add a 4 corners polygon primitive as box body*
4,1,4,$2,$3,$4,$5,$6,$7,$8,$9,$2,$3,0*
0 Add four circle primitives for the rounded corners*
1,1,$1+$1,$2,$3*
1,1,$1+$1,$4,$5*
1,1,$1+$1,$6,$7*
1,1,$1+$1,$8,$9*
0 Add four rect primitives between the rounded corners*
20,1,$1+$1,$2,$3,$4,$5,0*
20,1,$1+$1,$4,$5,$6,$7,0*
20,1,$1+$1,$6,$7,$8,$9,0*
20,1,$1+$1,$8,$9,$2,$3,0*%
%AMRotRect*
0 Rectangle, with rotation*
0 The origin of the aperture is its center*
0 $1 length*
0 $2 width*
0 $3 Rotation angle, in degrees counterclockwise*
0 Add horizontal line*
21,1,$1,$2,0,0,$3*%
G04 Aperture macros list end*
%ADD10O,1.905000X2.159000*%
%ADD11R,1.905000X2.159000*%
%ADD12R,1.800000X1.500000*%
%ADD13C,3.000000*%
%ADD14C,3.429000*%
%ADD15C,1.701800*%
%ADD16C,2.032000*%
%ADD17R,2.600000X2.600000*%
%ADD18RotRect,1.800000X1.500000X350.000000*%
%ADD19C,2.000000*%
%ADD20RotRect,2.600000X2.600000X350.000000*%
%ADD21RoundRect,0.250000X0.625000X-0.375000X0.625000X0.375000X-0.625000X0.375000X-0.625000X-0.375000X0*%
%ADD22C,4.400000*%
%ADD23O,1.200000X1.750000*%
%ADD24RotRect,2.600000X2.600000X356.000000*%
%ADD25C,3.500000*%
%ADD26RotRect,2.600000X2.600000X8.000000*%
%ADD27RotRect,1.800000X1.500000X356.000000*%
%ADD28RotRect,1.800000X1.500000X8.000000*%
%ADD29RotRect,1.800000X1.500000X4.000000*%
%ADD30C,0.900000*%
%ADD31R,1.000000X0.700000*%
%ADD32R,2.800000X1.000000*%
%ADD33RotRect,2.600000X2.600000X3.000000*%
%ADD34C,1.524000*%
%ADD35R,2.000000X2.000000*%
%ADD36R,2.500000X3.000000*%
%ADD37R,0.635000X1.143000*%
%ADD38RoundRect,0.250002X-1.499998X-1.499998X1.499998X-1.499998X1.499998X1.499998X-1.499998X1.499998X0*%
G04 APERTURE END LIST*
D10*
X178719019Y-58478792D03*
D11*
X181243019Y-58478792D03*
D12*
X151270000Y-61380000D03*
X154670000Y-61380000D03*
X133220000Y-102670000D03*
X136620000Y-102670000D03*
D13*
X147944862Y-54615117D03*
X157944862Y-54615117D03*
D14*
X152944862Y-58365117D03*
D13*
X152944862Y-52415117D03*
D15*
X147444862Y-58365117D03*
X158444862Y-58365117D03*
D16*
X152944862Y-64265117D03*
D17*
X149669862Y-52415117D03*
D16*
X157944862Y-62165117D03*
D17*
X161219862Y-54615117D03*
D16*
X147944862Y-62165117D03*
D18*
X191611654Y-85569596D03*
X194960000Y-86160000D03*
D10*
X173004504Y-58168721D03*
D11*
X175528504Y-58168721D03*
D19*
X109570000Y-56820000D03*
X116070000Y-56820000D03*
D13*
X183563206Y-111802978D03*
D15*
X182419621Y-115409183D03*
D14*
X187836064Y-116364248D03*
D13*
X193411283Y-113539460D03*
X188869271Y-110504642D03*
D15*
X193252507Y-117319313D03*
D16*
X186811540Y-122174614D03*
D20*
X185644025Y-109935944D03*
D16*
X182252162Y-119238277D03*
X192100240Y-120974758D03*
D20*
X196636529Y-114108158D03*
D21*
X189975000Y-59750000D03*
X189975000Y-56950000D03*
D13*
X134952431Y-93691867D03*
X129952431Y-95891867D03*
D15*
X140452431Y-99641867D03*
D13*
X139952431Y-95891867D03*
D14*
X134952431Y-99641867D03*
D15*
X129452431Y-99641867D03*
D17*
X131677431Y-93691867D03*
D16*
X134952431Y-105541867D03*
D17*
X143227431Y-95891867D03*
D16*
X129952431Y-103441867D03*
X139952431Y-103441867D03*
D12*
X115290000Y-88370000D03*
X118690000Y-88370000D03*
X133220000Y-85670000D03*
X136620000Y-85670000D03*
D22*
X126072491Y-90139683D03*
X164027509Y-93460317D03*
D23*
X163225000Y-128350000D03*
X161225000Y-128350000D03*
D13*
X171352345Y-97128458D03*
X176186701Y-99671881D03*
D14*
X170937294Y-103063964D03*
D13*
X166211061Y-98974316D03*
D15*
X165450692Y-102680303D03*
X176423896Y-103447625D03*
D24*
X168085323Y-96900005D03*
D16*
X170525731Y-108949592D03*
X165684399Y-106505925D03*
X175660040Y-107203490D03*
D24*
X179453723Y-99900334D03*
D25*
X194398013Y-57553692D03*
D18*
X185685827Y-119064798D03*
X189034173Y-119655202D03*
D13*
X157944862Y-71584448D03*
D14*
X152944862Y-75334448D03*
D15*
X147444862Y-75334448D03*
D13*
X147944862Y-71584448D03*
D15*
X158444862Y-75334448D03*
D13*
X152944862Y-69384448D03*
D16*
X152944862Y-81234448D03*
D17*
X149669862Y-69384448D03*
D16*
X157944862Y-79134448D03*
X147944862Y-79134448D03*
D17*
X161219862Y-71584448D03*
D25*
X148182160Y-105392393D03*
D13*
X178550416Y-65768492D03*
X173716060Y-63225069D03*
D14*
X173301009Y-69160575D03*
D15*
X178787611Y-69544236D03*
D13*
X168574776Y-65070927D03*
D15*
X167814407Y-68776914D03*
D16*
X172889446Y-75046203D03*
D24*
X170449038Y-62996616D03*
X181817438Y-65996945D03*
D16*
X168048114Y-72602536D03*
X178023755Y-73300101D03*
D13*
X177350913Y-82737828D03*
X167375273Y-82040263D03*
X172516557Y-80194405D03*
D15*
X166614904Y-85746250D03*
X177588108Y-86513572D03*
D14*
X172101506Y-86129911D03*
D24*
X169249535Y-79965952D03*
D16*
X171689943Y-92015539D03*
X176824252Y-90269437D03*
X166848611Y-89571872D03*
D24*
X180617935Y-82966281D03*
D14*
X152944862Y-92339060D03*
D15*
X158444862Y-92339060D03*
D13*
X157944862Y-88589060D03*
X147944862Y-88589060D03*
D15*
X147444862Y-92339060D03*
D13*
X152944862Y-86389060D03*
D17*
X149669862Y-86389060D03*
D16*
X152944862Y-98239060D03*
X157944862Y-96139060D03*
X147944862Y-96139060D03*
D17*
X161219862Y-88589060D03*
D15*
X103390943Y-122266583D03*
D13*
X102373910Y-118622664D03*
D15*
X92497995Y-123797487D03*
D13*
X92471230Y-120014395D03*
X97116389Y-117139940D03*
D14*
X97944469Y-123032035D03*
D16*
X98765590Y-128874617D03*
D26*
X93873261Y-117595732D03*
X105617038Y-118166872D03*
D16*
X93521986Y-127490919D03*
X103424667Y-126099188D03*
D12*
X151270000Y-78380000D03*
X154670000Y-78380000D03*
D25*
X88900000Y-114030000D03*
D27*
X170228282Y-88972828D03*
X173620000Y-89210000D03*
D14*
X116960000Y-102287813D03*
D15*
X111460000Y-102287813D03*
D13*
X116960000Y-96337813D03*
X111960000Y-98537813D03*
D15*
X122460000Y-102287813D03*
D13*
X121960000Y-98537813D03*
D16*
X116960000Y-108187813D03*
D17*
X113685000Y-96337813D03*
D16*
X121960000Y-106087813D03*
D17*
X125235000Y-98537813D03*
D16*
X111960000Y-106087813D03*
D21*
X187475000Y-59750000D03*
X187475000Y-56950000D03*
D18*
X188637481Y-102274394D03*
X191985827Y-102864798D03*
D12*
X151270000Y-95380000D03*
X154670000Y-95380000D03*
D28*
X96683088Y-126153188D03*
X100050000Y-125680000D03*
D29*
X115438282Y-124157172D03*
X118830000Y-123920000D03*
D13*
X189454852Y-78322940D03*
X194760917Y-77024604D03*
D15*
X188311267Y-81929145D03*
D14*
X193727710Y-82884210D03*
D13*
X199302929Y-80059422D03*
D15*
X199144153Y-83839275D03*
D16*
X192703186Y-88694576D03*
D20*
X191535671Y-76455906D03*
D16*
X188143808Y-85758239D03*
D20*
X202528175Y-80628120D03*
D16*
X197991886Y-87494720D03*
D25*
X121652143Y-57553692D03*
D12*
X133220000Y-68670000D03*
X136620000Y-68670000D03*
D13*
X121960000Y-81568484D03*
X111960000Y-81568484D03*
D14*
X116960000Y-85318484D03*
D15*
X122460000Y-85318484D03*
X111460000Y-85318484D03*
D13*
X116960000Y-79368484D03*
D17*
X113685000Y-79368484D03*
D16*
X116960000Y-91218484D03*
X111960000Y-89118484D03*
D17*
X125235000Y-81568484D03*
D16*
X121960000Y-89118484D03*
D30*
X86425000Y-96685000D03*
X86375000Y-99685000D03*
D31*
X88225000Y-100435000D03*
X88225000Y-97435000D03*
X88225000Y-95935000D03*
D32*
X86325000Y-94335000D03*
X86325000Y-102285000D03*
D13*
X134952431Y-59682647D03*
X139952431Y-61882647D03*
D14*
X134952431Y-65632647D03*
D15*
X140452431Y-65632647D03*
X129452431Y-65632647D03*
D13*
X129952431Y-61882647D03*
D16*
X134952431Y-71532647D03*
D17*
X131677431Y-59682647D03*
D16*
X129952431Y-69432647D03*
D17*
X143227431Y-61882647D03*
D16*
X139952431Y-69432647D03*
D12*
X115290000Y-105270000D03*
X118690000Y-105270000D03*
X115290000Y-71270000D03*
X118690000Y-71270000D03*
D27*
X171428282Y-71972828D03*
X174820000Y-72210000D03*
D13*
X116960000Y-62363872D03*
X111960000Y-64563872D03*
D14*
X116960000Y-68313872D03*
D15*
X122460000Y-68313872D03*
D13*
X121960000Y-64563872D03*
D15*
X111460000Y-68313872D03*
D17*
X113685000Y-62363872D03*
D16*
X116960000Y-74213872D03*
X121960000Y-72113872D03*
D17*
X125235000Y-64563872D03*
D16*
X111960000Y-72113872D03*
D13*
X116648601Y-115114549D03*
X121756888Y-117049854D03*
X111770592Y-117573214D03*
D15*
X111467538Y-121344243D03*
X122452462Y-120768547D03*
D14*
X116960000Y-121056395D03*
D33*
X113378089Y-115285950D03*
D16*
X117268782Y-126948309D03*
X112165729Y-125112867D03*
X122152024Y-124589507D03*
D33*
X125027400Y-116878454D03*
D25*
X194398013Y-127759458D03*
D15*
X129452431Y-82637259D03*
X140452431Y-82637259D03*
D13*
X139952431Y-78887259D03*
D14*
X134952431Y-82637259D03*
D13*
X129952431Y-78887259D03*
X134952431Y-76687259D03*
D16*
X134952431Y-88537259D03*
D17*
X131677431Y-76687259D03*
D16*
X129952431Y-86437259D03*
D17*
X143227431Y-78887259D03*
D16*
X139952431Y-86437259D03*
D34*
X88172500Y-58710000D03*
X104718900Y-57440000D03*
X104718900Y-59980000D03*
X88172500Y-61250000D03*
X88172500Y-63790000D03*
X104718900Y-62520000D03*
X104718900Y-65060000D03*
X88172500Y-66330000D03*
X104718900Y-67600000D03*
X88172500Y-68870000D03*
X88172500Y-71410000D03*
X104718900Y-70140000D03*
X104718900Y-72680000D03*
X88172500Y-73950000D03*
X88172500Y-76490000D03*
X104718900Y-75220000D03*
X88172500Y-79030000D03*
X104718900Y-77760000D03*
X88172500Y-81570000D03*
X104718900Y-80300000D03*
X88172500Y-84110000D03*
X104718900Y-82840000D03*
X104718900Y-85380000D03*
X88172500Y-86650000D03*
X103412500Y-86650000D03*
X89498900Y-85380000D03*
X89498900Y-82840000D03*
X103412500Y-84110000D03*
X89498900Y-80300000D03*
X103412500Y-81570000D03*
X89498900Y-77760000D03*
X103412500Y-79030000D03*
X103412500Y-76490000D03*
X89498900Y-75220000D03*
X89498900Y-72680000D03*
X103412500Y-73950000D03*
X103412500Y-71410000D03*
X89498900Y-70140000D03*
X89498900Y-67600000D03*
X103412500Y-68870000D03*
X103412500Y-66330000D03*
X89498900Y-65060000D03*
X103412500Y-63790000D03*
X89498900Y-62520000D03*
X103412500Y-61250000D03*
X89498900Y-59980000D03*
X89498900Y-57440000D03*
X103412500Y-58710000D03*
D27*
X169032423Y-105954242D03*
X172424141Y-106191414D03*
D35*
X99430000Y-94150000D03*
D19*
X94430000Y-94150000D03*
X96930000Y-94150000D03*
D36*
X91330000Y-101650000D03*
X102530000Y-101650000D03*
D10*
X167261254Y-57800649D03*
D11*
X169785254Y-57800649D03*
D21*
X184975000Y-59750000D03*
X184975000Y-56950000D03*
D13*
X196374742Y-96817079D03*
X186526665Y-95080597D03*
X191832730Y-93782261D03*
D14*
X190799523Y-99641867D03*
D15*
X185383080Y-98686802D03*
X196215966Y-100596932D03*
D20*
X188607484Y-93213563D03*
D16*
X189774999Y-105452233D03*
D20*
X199599988Y-97385777D03*
D16*
X185215621Y-102515896D03*
X195063699Y-104252377D03*
D37*
X166524620Y-129250000D03*
X167525380Y-129250000D03*
D38*
X171900000Y-127875000D03*
D25*
X178900000Y-127875000D03*
D37*
X166524620Y-127475000D03*
X167525380Y-127475000D03*
M02*
