M48
; DRILL file {KiCad (6.0.4)} date Sun Jul  3 15:15:53 2022
; FORMAT={-:-/ absolute / metric / decimal}
; #@! TF.CreationDate,2022-07-03T15:15:53+02:00
; #@! TF.GenerationSoftware,Kicad,Pcbnew,(6.0.4)
; #@! TF.FileFunction,NonPlated,1,2,NPTH
FMAT,2
METRIC
; #@! TA.AperFunction,NonPlated,NPTH,ComponentDrill
T1C0.700
; #@! TA.AperFunction,NonPlated,NPTH,ComponentDrill
T2C1.702
; #@! TA.AperFunction,NonPlated,NPTH,ComponentDrill
T3C3.000
; #@! TA.AperFunction,NonPlated,NPTH,ComponentDrill
T4C3.429
%
G90
G05
T1
X86.375Y-99.685
X86.425Y-96.685
T2
X92.498Y-123.797
X103.391Y-122.267
X111.46Y-68.314
X111.46Y-85.318
X111.46Y-102.288
X111.468Y-121.344
X122.452Y-120.769
X122.46Y-68.314
X122.46Y-85.318
X122.46Y-102.288
X129.452Y-65.633
X129.452Y-82.637
X129.452Y-99.642
X140.452Y-65.633
X140.452Y-82.637
X140.452Y-99.642
X147.445Y-58.365
X147.445Y-75.334
X147.445Y-92.339
X158.445Y-58.365
X158.445Y-75.334
X158.445Y-92.339
X165.451Y-102.68
X166.615Y-85.746
X167.814Y-68.777
X176.424Y-103.448
X177.588Y-86.514
X178.788Y-69.544
X182.42Y-115.409
X185.383Y-98.687
X188.311Y-81.929
X193.253Y-117.319
X196.216Y-100.597
X199.144Y-83.839
T3
X92.471Y-120.014
X97.116Y-117.14
X102.374Y-118.623
X111.771Y-117.573
X111.96Y-64.564
X111.96Y-81.568
X111.96Y-98.538
X116.649Y-115.115
X116.96Y-62.364
X116.96Y-79.368
X116.96Y-96.338
X121.757Y-117.05
X121.96Y-64.564
X121.96Y-81.568
X121.96Y-98.538
X129.952Y-61.883
X129.952Y-78.887
X129.952Y-95.892
X134.952Y-59.683
X134.952Y-76.687
X134.952Y-93.692
X139.952Y-61.883
X139.952Y-78.887
X139.952Y-95.892
X147.945Y-54.615
X147.945Y-71.584
X147.945Y-88.589
X152.945Y-52.415
X152.945Y-69.384
X152.945Y-86.389
X157.945Y-54.615
X157.945Y-71.584
X157.945Y-88.589
X166.211Y-98.974
X167.375Y-82.04
X168.575Y-65.071
X171.352Y-97.128
X172.517Y-80.194
X173.716Y-63.225
X176.187Y-99.672
X177.351Y-82.738
X178.55Y-65.768
X183.563Y-111.803
X186.527Y-95.081
X188.869Y-110.505
X189.455Y-78.323
X191.833Y-93.782
X193.411Y-113.539
X194.761Y-77.025
X196.375Y-96.817
X199.303Y-80.059
T4
X97.944Y-123.032
X116.96Y-68.314
X116.96Y-85.318
X116.96Y-102.288
X116.96Y-121.056
X134.952Y-65.633
X134.952Y-82.637
X134.952Y-99.642
X152.945Y-58.365
X152.945Y-75.334
X152.945Y-92.339
X170.937Y-103.064
X172.102Y-86.13
X173.301Y-69.161
X187.836Y-116.364
X190.8Y-99.642
X193.728Y-82.884
T0
M30
