M48
; DRILL file {KiCad (6.0.4)} date Sun Jul  3 15:15:53 2022
; FORMAT={-:-/ absolute / metric / decimal}
; #@! TF.CreationDate,2022-07-03T15:15:53+02:00
; #@! TF.GenerationSoftware,Kicad,Pcbnew,(6.0.4)
; #@! TF.FileFunction,Plated,1,2,PTH
FMAT,2
METRIC
; #@! TA.AperFunction,Plated,PTH,ViaDrill
T1C0.300
; #@! TA.AperFunction,Plated,PTH,ComponentDrill
T2C0.400
; #@! TA.AperFunction,Plated,PTH,ComponentDrill
T3C0.750
; #@! TA.AperFunction,Plated,PTH,ComponentDrill
T4C0.813
; #@! TA.AperFunction,Plated,PTH,ComponentDrill
T5C0.991
; #@! TA.AperFunction,Plated,PTH,ComponentDrill
T6C1.000
; #@! TA.AperFunction,Plated,PTH,ComponentDrill
T7C1.270
; #@! TA.AperFunction,Plated,PTH,ComponentDrill
T8C1.300
; #@! TA.AperFunction,Plated,PTH,ComponentDrill
T9C1.550
; #@! TA.AperFunction,Plated,PTH,ComponentDrill
T10C2.000
; #@! TA.AperFunction,Plated,PTH,ComponentDrill
T11C2.200
%
G90
G05
T1
X87.4Y-98.175
X88.225Y-98.195
X88.975Y-98.175
X90.471Y-84.146
X90.481Y-79.056
X90.509Y-71.409
X90.514Y-68.864
X90.514Y-81.564
X90.516Y-73.941
X90.516Y-86.641
X90.521Y-58.721
X90.529Y-61.229
X90.758Y-76.483
X92.05Y-73.95
X92.59Y-71.41
X92.774Y-76.49
X93.255Y-79.03
X93.73Y-81.57
X94.21Y-84.11
X94.6Y-86.65
X96.72Y-128.215
X100.325Y-127.55
X100.525Y-123.65
X101.4Y-94.45
X106.885Y-115.25
X106.903Y-109.432
X107.45Y-78.95
X107.975Y-126.1
X108.05Y-93.525
X108.625Y-114.5
X109.15Y-106.925
X115.26Y-73.325
X115.27Y-107.304
X115.33Y-90.434
X115.47Y-126.204
X118.625Y-106.975
X118.675Y-73.025
X118.675Y-90.1
X119.0Y-125.725
X119.15Y-69.6
X119.5Y-121.925
X121.7Y-91.5
X124.705Y-110.55
X126.0Y-85.95
X126.0Y-104.7
X126.025Y-70.825
X133.21Y-70.665
X133.24Y-87.754
X133.26Y-104.704
X136.6Y-87.425
X136.625Y-104.375
X136.65Y-70.375
X138.5Y-71.75
X138.625Y-105.925
X138.675Y-88.8
X147.2Y-52.175
X147.8Y-98.525
X148.075Y-60.125
X151.27Y-63.454
X151.27Y-97.404
X151.29Y-80.424
X151.55Y-50.875
X151.625Y-49.8
X152.9Y-55.45
X154.625Y-97.075
X154.65Y-63.05
X154.7Y-80.0
X154.75Y-50.016
X158.475Y-52.0
X163.175Y-61.425
X165.25Y-108.85
X167.8Y-91.25
X167.9Y-75.25
X168.425Y-104.075
X168.55Y-110.425
X168.75Y-129.25
X169.03Y-108.064
X169.525Y-87.025
X169.85Y-93.4
X170.21Y-91.144
X170.7Y-70.075
X170.9Y-76.4
X171.41Y-74.114
X171.55Y-59.825
X172.475Y-108.05
X173.125Y-104.575
X174.025Y-91.175
X174.275Y-87.575
X175.2Y-74.05
X175.6Y-70.7
X176.65Y-61.4
X177.375Y-56.325
X185.1Y-116.875
X185.35Y-121.325
X188.025Y-100.275
X188.55Y-104.55
X189.275Y-121.475
X189.8Y-118.15
X191.075Y-83.575
X191.105Y-87.65
X192.2Y-104.7
X192.7Y-101.45
X195.05Y-88.0
X195.7Y-84.6
X196.45Y-107.775
X199.4Y-90.95
T2
X96.683Y-126.153
X100.05Y-125.68
X115.29Y-71.27
X115.29Y-88.37
X115.29Y-105.27
X115.438Y-124.157
X118.69Y-71.27
X118.69Y-88.37
X118.69Y-105.27
X118.83Y-123.92
X133.22Y-68.67
X133.22Y-85.67
X133.22Y-102.67
X136.62Y-68.67
X136.62Y-85.67
X136.62Y-102.67
X151.27Y-61.38
X151.27Y-78.38
X151.27Y-95.38
X154.67Y-61.38
X154.67Y-78.38
X154.67Y-95.38
X169.032Y-105.954
X170.228Y-88.973
X171.428Y-71.973
X172.424Y-106.191
X173.62Y-89.21
X174.82Y-72.21
X184.975Y-56.95
X184.975Y-59.75
X185.686Y-119.065
X187.475Y-56.95
X187.475Y-59.75
X188.637Y-102.274
X189.034Y-119.655
X189.975Y-56.95
X189.975Y-59.75
X191.612Y-85.57
X191.986Y-102.865
X194.96Y-86.16
T3
X161.225Y-128.35
X163.225Y-128.35
T4
X88.172Y-58.71
X88.172Y-61.25
X88.172Y-63.79
X88.172Y-66.33
X88.172Y-68.87
X88.172Y-71.41
X88.172Y-73.95
X88.172Y-76.49
X88.172Y-79.03
X88.172Y-81.57
X88.172Y-84.11
X88.172Y-86.65
X89.499Y-57.44
X89.499Y-59.98
X89.499Y-62.52
X89.499Y-65.06
X89.499Y-67.6
X89.499Y-70.14
X89.499Y-72.68
X89.499Y-75.22
X89.499Y-77.76
X89.499Y-80.3
X89.499Y-82.84
X89.499Y-85.38
X103.412Y-58.71
X103.412Y-61.25
X103.412Y-63.79
X103.412Y-66.33
X103.412Y-68.87
X103.412Y-71.41
X103.412Y-73.95
X103.412Y-76.49
X103.412Y-79.03
X103.412Y-81.57
X103.412Y-84.11
X103.412Y-86.65
X104.719Y-57.44
X104.719Y-59.98
X104.719Y-62.52
X104.719Y-65.06
X104.719Y-67.6
X104.719Y-70.14
X104.719Y-72.68
X104.719Y-75.22
X104.719Y-77.76
X104.719Y-80.3
X104.719Y-82.84
X104.719Y-85.38
T5
X167.261Y-57.801
X169.785Y-57.801
X173.005Y-58.169
X175.529Y-58.169
X178.719Y-58.479
X181.243Y-58.479
T6
X94.43Y-94.15
X96.93Y-94.15
X99.43Y-94.15
T7
X93.522Y-127.491
X98.766Y-128.875
X103.425Y-126.099
X111.96Y-72.114
X111.96Y-89.118
X111.96Y-106.088
X112.166Y-125.113
X116.96Y-74.214
X116.96Y-91.218
X116.96Y-108.188
X117.269Y-126.948
X121.96Y-72.114
X121.96Y-89.118
X121.96Y-106.088
X122.152Y-124.59
X129.952Y-69.433
X129.952Y-86.437
X129.952Y-103.442
X134.952Y-71.533
X134.952Y-88.537
X134.952Y-105.542
X139.952Y-69.433
X139.952Y-86.437
X139.952Y-103.442
X147.945Y-62.165
X147.945Y-79.134
X147.945Y-96.139
X152.945Y-64.265
X152.945Y-81.234
X152.945Y-98.239
X157.945Y-62.165
X157.945Y-79.134
X157.945Y-96.139
X165.684Y-106.506
X166.849Y-89.572
X168.048Y-72.603
X170.526Y-108.95
X171.69Y-92.016
X172.889Y-75.046
X175.66Y-107.203
X176.824Y-90.269
X178.024Y-73.3
X182.252Y-119.238
X185.216Y-102.516
X186.812Y-122.175
X188.144Y-85.758
X189.775Y-105.452
X192.1Y-120.975
X192.703Y-88.695
X195.064Y-104.252
X197.992Y-87.495
T8
X109.57Y-56.82
X116.07Y-56.82
T9
X171.9Y-127.875
X178.9Y-127.875
T11
X88.9Y-114.03
X121.652Y-57.554
X126.072Y-90.14
X148.182Y-105.392
X164.028Y-93.46
X194.398Y-57.554
X194.398Y-127.759
T10
X91.33Y-101.4G85X91.33Y-101.9
G05
X102.53Y-101.4G85X102.53Y-101.9
G05
T0
M30
