G04 #@! TF.GenerationSoftware,KiCad,Pcbnew,(6.0.4)*
G04 #@! TF.CreationDate,2022-07-03T01:05:05+02:00*
G04 #@! TF.ProjectId,Klotz,4b6c6f74-7a2e-46b6-9963-61645f706362,0.2*
G04 #@! TF.SameCoordinates,Original*
G04 #@! TF.FileFunction,Paste,Bot*
G04 #@! TF.FilePolarity,Positive*
%FSLAX46Y46*%
G04 Gerber Fmt 4.6, Leading zero omitted, Abs format (unit mm)*
G04 Created by KiCad (PCBNEW (6.0.4)) date 2022-07-03 01:05:05*
%MOMM*%
%LPD*%
G01*
G04 APERTURE LIST*
G04 Aperture macros list*
%AMRotRect*
0 Rectangle, with rotation*
0 The origin of the aperture is its center*
0 $1 length*
0 $2 width*
0 $3 Rotation angle, in degrees counterclockwise*
0 Add horizontal line*
21,1,$1,$2,0,0,$3*%
G04 Aperture macros list end*
%ADD10O,1.905000X2.159000*%
%ADD11R,1.905000X2.159000*%
%ADD12R,2.600000X2.600000*%
%ADD13RotRect,2.600000X2.600000X350.000000*%
%ADD14RotRect,2.600000X2.600000X356.000000*%
%ADD15RotRect,2.600000X2.600000X8.000000*%
%ADD16R,1.000000X0.700000*%
%ADD17R,2.800000X1.000000*%
%ADD18RotRect,2.600000X2.600000X3.000000*%
%ADD19R,0.635000X1.143000*%
G04 APERTURE END LIST*
D10*
X178719019Y-58478792D03*
D11*
X181243019Y-58478792D03*
D12*
X149669862Y-52415117D03*
X161219862Y-54615117D03*
D10*
X173004504Y-58168721D03*
D11*
X175528504Y-58168721D03*
D13*
X185644025Y-109935944D03*
X196636529Y-114108158D03*
D12*
X131677431Y-93691867D03*
X143227431Y-95891867D03*
D14*
X168085323Y-96900005D03*
X179453723Y-99900334D03*
D12*
X149669862Y-69384448D03*
X161219862Y-71584448D03*
D14*
X170449038Y-62996616D03*
X181817438Y-65996945D03*
X169249535Y-79965952D03*
X180617935Y-82966281D03*
D12*
X149669862Y-86389060D03*
X161219862Y-88589060D03*
D15*
X93873261Y-117595732D03*
X105617038Y-118166872D03*
D12*
X113685000Y-96337813D03*
X125235000Y-98537813D03*
D13*
X191535671Y-76455906D03*
X202528175Y-80628120D03*
D12*
X113685000Y-79368484D03*
X125235000Y-81568484D03*
D16*
X88225000Y-100435000D03*
X88225000Y-97435000D03*
X88225000Y-95935000D03*
D17*
X86325000Y-94335000D03*
X86325000Y-102285000D03*
D12*
X131677431Y-59682647D03*
X143227431Y-61882647D03*
X113685000Y-62363872D03*
X125235000Y-64563872D03*
D18*
X113378089Y-115285950D03*
X125027400Y-116878454D03*
D12*
X131677431Y-76687259D03*
X143227431Y-78887259D03*
D10*
X167261254Y-57800649D03*
D11*
X169785254Y-57800649D03*
D13*
X188607484Y-93213563D03*
X199599988Y-97385777D03*
D19*
X166524620Y-129250000D03*
X167525380Y-129250000D03*
X166524620Y-127475000D03*
X167525380Y-127475000D03*
M02*
