G04 #@! TF.GenerationSoftware,KiCad,Pcbnew,(6.0.4)*
G04 #@! TF.CreationDate,2022-07-03T15:15:51+02:00*
G04 #@! TF.ProjectId,Klotz,4b6c6f74-7a2e-46b6-9963-61645f706362,0.2*
G04 #@! TF.SameCoordinates,Original*
G04 #@! TF.FileFunction,Legend,Top*
G04 #@! TF.FilePolarity,Positive*
%FSLAX46Y46*%
G04 Gerber Fmt 4.6, Leading zero omitted, Abs format (unit mm)*
G04 Created by KiCad (PCBNEW (6.0.4)) date 2022-07-03 15:15:51*
%MOMM*%
%LPD*%
G01*
G04 APERTURE LIST*
G04 Aperture macros list*
%AMRoundRect*
0 Rectangle with rounded corners*
0 $1 Rounding radius*
0 $2 $3 $4 $5 $6 $7 $8 $9 X,Y pos of 4 corners*
0 Add a 4 corners polygon primitive as box body*
4,1,4,$2,$3,$4,$5,$6,$7,$8,$9,$2,$3,0*
0 Add four circle primitives for the rounded corners*
1,1,$1+$1,$2,$3*
1,1,$1+$1,$4,$5*
1,1,$1+$1,$6,$7*
1,1,$1+$1,$8,$9*
0 Add four rect primitives between the rounded corners*
20,1,$1+$1,$2,$3,$4,$5,0*
20,1,$1+$1,$4,$5,$6,$7,0*
20,1,$1+$1,$6,$7,$8,$9,0*
20,1,$1+$1,$8,$9,$2,$3,0*%
%AMRotRect*
0 Rectangle, with rotation*
0 The origin of the aperture is its center*
0 $1 length*
0 $2 width*
0 $3 Rotation angle, in degrees counterclockwise*
0 Add horizontal line*
21,1,$1,$2,0,0,$3*%
G04 Aperture macros list end*
%ADD10C,0.150000*%
%ADD11C,0.124999*%
%ADD12C,0.120000*%
%ADD13C,0.000000*%
%ADD14C,0.119999*%
%ADD15C,0.125000*%
%ADD16C,0.200000*%
%ADD17O,1.905000X2.159000*%
%ADD18R,1.905000X2.159000*%
%ADD19C,2.000000*%
%ADD20C,1.524000*%
%ADD21R,1.800000X1.500000*%
%ADD22R,0.635000X1.143000*%
%ADD23C,3.000000*%
%ADD24C,3.429000*%
%ADD25C,1.701800*%
%ADD26R,2.600000X2.600000*%
%ADD27C,2.032000*%
%ADD28RotRect,1.800000X1.500000X350.000000*%
%ADD29RotRect,2.600000X2.600000X350.000000*%
%ADD30RoundRect,0.250000X0.625000X-0.375000X0.625000X0.375000X-0.625000X0.375000X-0.625000X-0.375000X0*%
%ADD31C,4.400000*%
%ADD32O,1.200000X1.750000*%
%ADD33RotRect,2.600000X2.600000X356.000000*%
%ADD34C,3.500000*%
%ADD35RotRect,2.600000X2.600000X8.000000*%
%ADD36RotRect,1.800000X1.500000X356.000000*%
%ADD37RotRect,1.800000X1.500000X8.000000*%
%ADD38RotRect,1.800000X1.500000X4.000000*%
%ADD39C,0.900000*%
%ADD40R,1.000000X0.700000*%
%ADD41R,2.800000X1.000000*%
%ADD42RotRect,2.600000X2.600000X3.000000*%
%ADD43R,2.000000X2.000000*%
%ADD44R,2.500000X3.000000*%
%ADD45RoundRect,0.250002X-1.499998X-1.499998X1.499998X-1.499998X1.499998X1.499998X-1.499998X1.499998X0*%
G04 APERTURE END LIST*
D10*
X167554664Y-119737500D02*
X165751510Y-120220655D01*
D11*
X99662117Y-66854958D02*
X100181142Y-66335933D01*
D12*
X186576870Y-69145700D02*
X186576870Y-66406790D01*
D13*
G36*
X86386125Y-130258845D02*
G01*
X88642358Y-130258845D01*
X88818627Y-131810000D01*
X85540048Y-131810000D01*
X85469537Y-131774760D01*
X85363771Y-131774760D01*
X85328523Y-131739505D01*
X85258012Y-131739505D01*
X85222760Y-131704242D01*
X85187509Y-131704242D01*
X85152253Y-131668994D01*
X85117002Y-131668994D01*
X85117002Y-131633738D01*
X85081750Y-131598491D01*
X85046487Y-131598491D01*
X85046487Y-131563228D01*
X85011243Y-131527980D01*
X84975980Y-131492724D01*
X84940736Y-131457461D01*
X84940736Y-131422221D01*
X84905477Y-131386966D01*
X84905477Y-131316455D01*
X84870221Y-131281199D01*
X84870221Y-131175441D01*
X84834970Y-131140185D01*
X84834970Y-103325122D01*
X86386125Y-103325122D01*
X86386125Y-130258845D01*
G37*
D14*
X132840218Y-123786845D02*
X132840218Y-116860772D01*
X140710756Y-118959582D02*
X138646927Y-116860772D01*
D11*
X98935482Y-66854958D02*
X98935482Y-66854958D01*
D14*
X141690200Y-116860772D02*
X141690200Y-116860772D01*
X135918473Y-123786845D02*
X132840218Y-123786845D01*
X145293159Y-116860772D02*
X141690200Y-116860772D01*
D10*
X163675000Y-113400000D02*
X163675000Y-121950000D01*
X158480885Y-117572333D02*
X159017779Y-119047441D01*
D11*
X99662117Y-65124875D02*
X99662117Y-65124875D01*
X96340357Y-67685398D02*
X98035838Y-67685398D01*
D14*
X138646927Y-116860772D02*
X138646927Y-116860772D01*
D11*
X100181142Y-66335933D02*
X100181142Y-65643900D01*
D14*
X132840218Y-123786845D02*
X132840218Y-123786845D01*
X140710756Y-118959582D02*
X140710756Y-118959582D01*
D11*
X95094697Y-70245922D02*
X96340357Y-67685398D01*
D10*
X90768900Y-56170000D02*
X103448900Y-56170000D01*
X90768900Y-86625000D02*
X103448900Y-86650000D01*
D12*
X178367000Y-125000000D02*
X179383001Y-125000000D01*
D11*
X98935482Y-65124875D02*
X98935482Y-65124875D01*
D14*
X133819662Y-121723015D02*
X135883494Y-123786845D01*
D11*
X98416458Y-66335933D02*
X98416458Y-66335933D01*
D12*
X189724060Y-66368941D02*
X190308359Y-65784642D01*
D10*
X159461529Y-118095819D02*
X160100000Y-119850000D01*
D12*
X191842149Y-67475000D02*
X190000000Y-69317149D01*
D11*
X98416458Y-65643900D02*
X98416458Y-66335933D01*
D10*
X165850000Y-117175000D02*
X164530000Y-118495000D01*
D12*
X191257850Y-65784651D02*
X191842149Y-66368950D01*
D11*
X100181142Y-65643900D02*
X99662117Y-65124875D01*
D14*
X138646927Y-116860772D02*
X135883494Y-116860772D01*
D11*
X94298858Y-65643900D02*
X94298858Y-66335933D01*
D10*
X189361169Y-69532491D02*
X189231169Y-69532491D01*
D14*
X138646927Y-123786845D02*
X140710756Y-121723015D01*
D11*
X95509916Y-65124875D02*
X95509916Y-65124875D01*
X96340357Y-67685398D02*
X96340357Y-67685398D01*
X94817883Y-66854958D02*
X95509916Y-66854958D01*
D14*
X133819662Y-118959582D02*
X133819662Y-121723015D01*
D12*
X188110660Y-65822500D02*
X188694959Y-66406799D01*
D14*
X129412162Y-123786845D02*
X129412162Y-116755832D01*
D11*
X98416458Y-66335933D02*
X98935482Y-66854958D01*
D14*
X135883494Y-116860772D02*
X135883494Y-116860772D01*
D10*
X189211169Y-69722491D02*
X189361169Y-69722491D01*
D12*
X171900000Y-124572480D02*
X171900001Y-125600000D01*
D14*
X141830121Y-123786845D02*
X141830121Y-123786845D01*
D12*
X188110660Y-65822500D02*
X187161174Y-69730000D01*
D13*
G36*
X198082785Y-53583799D02*
G01*
X198118033Y-53619058D01*
X198188528Y-53689569D01*
X198223761Y-53724824D01*
X198259024Y-53760080D01*
X198294257Y-53795335D01*
X198329504Y-53830590D01*
X198364737Y-53865850D01*
X198400000Y-53901101D01*
X198400000Y-73819394D01*
X196884100Y-73572614D01*
X196884100Y-55064493D01*
X163181677Y-55064493D01*
X163181677Y-53548589D01*
X197695105Y-53548547D01*
X198047553Y-53548547D01*
X198082785Y-53583799D01*
G37*
D14*
X140710756Y-121723015D02*
X140710756Y-118959582D01*
D13*
G36*
X198361472Y-131059629D02*
G01*
X198361472Y-131447446D01*
X198290976Y-131517957D01*
X198255744Y-131553212D01*
X198220481Y-131588468D01*
X198185248Y-131623723D01*
X198150000Y-131658979D01*
X198114768Y-131694234D01*
X198079505Y-131729497D01*
X198044272Y-131764745D01*
X198009024Y-131800000D01*
X105609504Y-131800000D01*
X109452140Y-131271199D01*
X109452140Y-131200643D01*
X126937918Y-130284047D01*
X196880988Y-130284047D01*
X196880988Y-123867894D01*
X198361640Y-115371778D01*
X198361472Y-131059629D01*
G37*
D11*
X99662117Y-65124875D02*
X98935482Y-65124875D01*
D14*
X138646927Y-123786845D02*
X138646927Y-123786845D01*
D10*
X160700000Y-114575000D02*
X158050000Y-114575000D01*
D11*
X95509916Y-66854958D02*
X96028941Y-66335933D01*
X94817883Y-65124875D02*
X94298858Y-65643900D01*
D12*
X191842149Y-66368950D02*
X191842149Y-67475000D01*
D14*
X129412162Y-123786845D02*
X129412162Y-123786845D01*
D10*
X189361169Y-69722491D02*
X189361169Y-69532491D01*
D11*
X96028941Y-65643900D02*
X95509916Y-65124875D01*
D12*
X171367000Y-125086241D02*
X172383000Y-125086240D01*
D11*
X96028941Y-65643900D02*
X96028941Y-65643900D01*
D12*
X190000000Y-69725000D02*
X191875000Y-69725000D01*
D14*
X135883494Y-123786845D02*
X138646927Y-123786845D01*
D12*
X161733001Y-126867001D02*
X160705481Y-126867001D01*
X163233000Y-126341999D02*
X163233000Y-127357999D01*
D11*
X94298858Y-66335933D02*
X94298858Y-66335933D01*
D14*
X138611945Y-116860772D02*
X141690200Y-116860772D01*
D11*
X98935482Y-66854958D02*
X99662117Y-66854958D01*
X100181142Y-66335933D02*
X100181142Y-66335933D01*
D10*
X164800000Y-117175000D02*
X165850000Y-117175000D01*
D14*
X133819662Y-118959582D02*
X133819662Y-118959582D01*
X141830121Y-123786845D02*
X145293159Y-116860772D01*
D10*
X161150000Y-121975000D02*
X161150000Y-115025000D01*
D14*
X145293159Y-116860772D02*
X145293159Y-116860772D01*
D12*
X187161170Y-69730000D02*
X186576870Y-69145700D01*
D11*
X96028941Y-66335933D02*
X96028941Y-66335933D01*
D12*
X190308359Y-65784642D02*
X191257850Y-65784651D01*
D11*
X94817883Y-65124875D02*
X94817883Y-65124875D01*
D12*
X187161174Y-69730000D02*
X187161170Y-69730000D01*
D10*
X189211169Y-69532491D02*
X189211169Y-69722491D01*
D11*
X99662117Y-66854958D02*
X99662117Y-66854958D01*
D14*
X132875199Y-116860772D02*
X129412162Y-123786845D01*
D11*
X95509916Y-66854958D02*
X95509916Y-66854958D01*
D14*
X142564704Y-120113929D02*
X144838418Y-120113929D01*
D11*
X96028941Y-66335933D02*
X96028941Y-65643900D01*
D13*
G36*
X142691120Y-55054450D02*
G01*
X86391155Y-55054450D01*
X86391155Y-93269329D01*
X84840000Y-93269329D01*
X84840000Y-54173110D01*
X84875251Y-54137859D01*
X84875251Y-54032096D01*
X84910507Y-53996845D01*
X84910507Y-53961593D01*
X84945766Y-53926338D01*
X84945766Y-53891082D01*
X84981010Y-53855831D01*
X84981010Y-53820575D01*
X85016273Y-53785327D01*
X85051517Y-53785327D01*
X85051517Y-53750068D01*
X85086780Y-53714813D01*
X85122032Y-53714813D01*
X85122032Y-53679565D01*
X85157283Y-53679565D01*
X85192539Y-53644306D01*
X85227790Y-53609058D01*
X85298297Y-53609058D01*
X85333553Y-53573799D01*
X85368801Y-53573799D01*
X85404056Y-53538547D01*
X142691120Y-53538547D01*
X142691120Y-55054450D01*
G37*
D12*
X187161169Y-65822491D02*
X188110660Y-65822500D01*
D14*
X135883494Y-116860772D02*
X133819662Y-118959582D01*
D11*
X100181142Y-65643900D02*
X100181142Y-65643900D01*
D12*
X188694960Y-69145700D02*
X188110661Y-69729999D01*
D11*
X98035838Y-67685398D02*
X98035838Y-67685398D01*
D12*
X186576870Y-66406790D02*
X187161169Y-65822491D01*
X162725000Y-126850000D02*
X163741000Y-126849999D01*
D11*
X94298858Y-66335933D02*
X94817883Y-66854958D01*
D10*
X162725000Y-112450000D02*
X163675000Y-113400000D01*
X165910000Y-116065000D02*
X164800000Y-117175000D01*
D14*
X145293159Y-123786845D02*
X141830121Y-123786845D01*
D11*
X95509916Y-65124875D02*
X94817883Y-65124875D01*
D12*
X190000000Y-69317149D02*
X190000000Y-69725000D01*
X128050000Y-110300000D02*
X158025000Y-110300000D01*
X158025000Y-110300000D02*
X158025000Y-130300000D01*
X158025000Y-130300000D02*
X128050000Y-130300000D01*
X128050000Y-130300000D02*
X128050000Y-110300000D01*
D14*
X131161171Y-120323810D02*
X132875200Y-123786847D01*
D12*
X188110661Y-69729999D02*
X187161170Y-69730000D01*
X188694959Y-66406799D02*
X188694960Y-69145700D01*
D10*
X159017779Y-119047441D02*
X159461529Y-118095819D01*
D14*
X135883494Y-123786845D02*
X135883494Y-123786845D01*
D10*
X166645337Y-119212501D02*
X167554664Y-119737500D01*
X161150000Y-115025000D02*
X160700000Y-114575000D01*
X158100000Y-112450000D02*
X162725000Y-112450000D01*
D11*
X98035838Y-67685398D02*
X99350703Y-70315126D01*
D14*
X141690200Y-116860772D02*
X141690200Y-123786845D01*
X140710756Y-121723015D02*
X140710756Y-121723015D01*
D11*
X94817883Y-66854958D02*
X94817883Y-66854958D01*
X98935482Y-65124875D02*
X98416458Y-65643900D01*
D10*
X168161625Y-118806212D02*
X166645337Y-119212501D01*
D15*
X90721726Y-109417857D02*
X90988392Y-109417857D01*
X91102678Y-109836904D02*
X90721726Y-109836904D01*
X90721726Y-109036904D01*
X91102678Y-109036904D01*
X91445535Y-109836904D02*
X91445535Y-109036904D01*
X91902678Y-109836904D01*
X91902678Y-109036904D01*
X92740773Y-109760714D02*
X92702678Y-109798809D01*
X92588392Y-109836904D01*
X92512202Y-109836904D01*
X92397916Y-109798809D01*
X92321726Y-109722619D01*
X92283630Y-109646428D01*
X92245535Y-109494047D01*
X92245535Y-109379761D01*
X92283630Y-109227380D01*
X92321726Y-109151190D01*
X92397916Y-109075000D01*
X92512202Y-109036904D01*
X92588392Y-109036904D01*
X92702678Y-109075000D01*
X92740773Y-109113095D01*
X93236011Y-109036904D02*
X93388392Y-109036904D01*
X93464583Y-109075000D01*
X93540773Y-109151190D01*
X93578869Y-109303571D01*
X93578869Y-109570238D01*
X93540773Y-109722619D01*
X93464583Y-109798809D01*
X93388392Y-109836904D01*
X93236011Y-109836904D01*
X93159821Y-109798809D01*
X93083630Y-109722619D01*
X93045535Y-109570238D01*
X93045535Y-109303571D01*
X93083630Y-109151190D01*
X93159821Y-109075000D01*
X93236011Y-109036904D01*
X93921726Y-109836904D02*
X93921726Y-109036904D01*
X94112202Y-109036904D01*
X94226488Y-109075000D01*
X94302678Y-109151190D01*
X94340773Y-109227380D01*
X94378869Y-109379761D01*
X94378869Y-109494047D01*
X94340773Y-109646428D01*
X94302678Y-109722619D01*
X94226488Y-109798809D01*
X94112202Y-109836904D01*
X93921726Y-109836904D01*
X94721726Y-109417857D02*
X94988392Y-109417857D01*
X95102678Y-109836904D02*
X94721726Y-109836904D01*
X94721726Y-109036904D01*
X95102678Y-109036904D01*
X95902678Y-109836904D02*
X95636011Y-109455952D01*
X95445535Y-109836904D02*
X95445535Y-109036904D01*
X95750297Y-109036904D01*
X95826488Y-109075000D01*
X95864583Y-109113095D01*
X95902678Y-109189285D01*
X95902678Y-109303571D01*
X95864583Y-109379761D01*
X95826488Y-109417857D01*
X95750297Y-109455952D01*
X95445535Y-109455952D01*
X90350297Y-72680254D02*
X90731250Y-72680254D01*
X90969345Y-72680254D02*
X91350297Y-72680254D01*
X91588392Y-72608825D02*
X91755059Y-72608825D01*
X91826488Y-72870730D02*
X91588392Y-72870730D01*
X91588392Y-72370730D01*
X91826488Y-72370730D01*
X92040773Y-72870730D02*
X92040773Y-72370730D01*
X92326488Y-72870730D01*
X92326488Y-72370730D01*
X92850297Y-72823111D02*
X92826488Y-72846920D01*
X92755059Y-72870730D01*
X92707440Y-72870730D01*
X92636011Y-72846920D01*
X92588392Y-72799301D01*
X92564583Y-72751682D01*
X92540773Y-72656444D01*
X92540773Y-72585016D01*
X92564583Y-72489778D01*
X92588392Y-72442159D01*
X92636011Y-72394540D01*
X92707440Y-72370730D01*
X92755059Y-72370730D01*
X92826488Y-72394540D01*
X92850297Y-72418349D01*
X93231250Y-72608825D02*
X93302678Y-72632635D01*
X93326488Y-72656444D01*
X93350297Y-72704063D01*
X93350297Y-72775492D01*
X93326488Y-72823111D01*
X93302678Y-72846920D01*
X93255059Y-72870730D01*
X93064583Y-72870730D01*
X93064583Y-72370730D01*
X93231250Y-72370730D01*
X93278869Y-72394540D01*
X93302678Y-72418349D01*
X93326488Y-72465968D01*
X93326488Y-72513587D01*
X93302678Y-72561206D01*
X93278869Y-72585016D01*
X93231250Y-72608825D01*
X93064583Y-72608825D01*
X101264464Y-70336190D02*
X101026369Y-70336190D01*
X101026369Y-69836190D01*
X101431130Y-70074285D02*
X101597797Y-70074285D01*
X101669226Y-70336190D02*
X101431130Y-70336190D01*
X101431130Y-69836190D01*
X101669226Y-69836190D01*
X101883511Y-70336190D02*
X101883511Y-69836190D01*
X102002559Y-69836190D01*
X102073988Y-69860000D01*
X102121607Y-69907619D01*
X102145416Y-69955238D01*
X102169226Y-70050476D01*
X102169226Y-70121904D01*
X102145416Y-70217142D01*
X102121607Y-70264761D01*
X102073988Y-70312380D01*
X102002559Y-70336190D01*
X101883511Y-70336190D01*
X102645416Y-70336190D02*
X102359702Y-70336190D01*
X102502559Y-70336190D02*
X102502559Y-69836190D01*
X102454940Y-69907619D01*
X102407321Y-69955238D01*
X102359702Y-69979047D01*
X102859702Y-70145714D02*
X103240654Y-70145714D01*
X103478750Y-70145714D02*
X103859702Y-70145714D01*
X188051130Y-61358095D02*
X188089226Y-61320000D01*
X188165416Y-61281904D01*
X188355892Y-61281904D01*
X188432083Y-61320000D01*
X188470178Y-61358095D01*
X188508273Y-61434285D01*
X188508273Y-61510476D01*
X188470178Y-61624761D01*
X188013035Y-62081904D01*
X188508273Y-62081904D01*
X188813035Y-61358095D02*
X188851130Y-61320000D01*
X188927321Y-61281904D01*
X189117797Y-61281904D01*
X189193988Y-61320000D01*
X189232083Y-61358095D01*
X189270178Y-61434285D01*
X189270178Y-61510476D01*
X189232083Y-61624761D01*
X188774940Y-62081904D01*
X189270178Y-62081904D01*
X189765416Y-61281904D02*
X189841607Y-61281904D01*
X189917797Y-61320000D01*
X189955892Y-61358095D01*
X189993988Y-61434285D01*
X190032083Y-61586666D01*
X190032083Y-61777142D01*
X189993988Y-61929523D01*
X189955892Y-62005714D01*
X189917797Y-62043809D01*
X189841607Y-62081904D01*
X189765416Y-62081904D01*
X189689226Y-62043809D01*
X189651130Y-62005714D01*
X189613035Y-61929523D01*
X189574940Y-61777142D01*
X189574940Y-61586666D01*
X189613035Y-61434285D01*
X189651130Y-61358095D01*
X189689226Y-61320000D01*
X189765416Y-61281904D01*
X190336845Y-62081904D02*
X190527321Y-62081904D01*
X190527321Y-61929523D01*
X190451130Y-61891428D01*
X190374940Y-61815238D01*
X190336845Y-61700952D01*
X190336845Y-61510476D01*
X190374940Y-61396190D01*
X190451130Y-61320000D01*
X190565416Y-61281904D01*
X190717797Y-61281904D01*
X190832083Y-61320000D01*
X190908273Y-61396190D01*
X190946369Y-61510476D01*
X190946369Y-61700952D01*
X190908273Y-61815238D01*
X190832083Y-61891428D01*
X190755892Y-61929523D01*
X190755892Y-62081904D01*
X190946369Y-62081904D01*
X101073988Y-83036190D02*
X100907321Y-82798095D01*
X100788273Y-83036190D02*
X100788273Y-82536190D01*
X100978750Y-82536190D01*
X101026369Y-82560000D01*
X101050178Y-82583809D01*
X101073988Y-82631428D01*
X101073988Y-82702857D01*
X101050178Y-82750476D01*
X101026369Y-82774285D01*
X100978750Y-82798095D01*
X100788273Y-82798095D01*
X101383511Y-82536190D02*
X101478750Y-82536190D01*
X101526369Y-82560000D01*
X101573988Y-82607619D01*
X101597797Y-82702857D01*
X101597797Y-82869523D01*
X101573988Y-82964761D01*
X101526369Y-83012380D01*
X101478750Y-83036190D01*
X101383511Y-83036190D01*
X101335892Y-83012380D01*
X101288273Y-82964761D01*
X101264464Y-82869523D01*
X101264464Y-82702857D01*
X101288273Y-82607619D01*
X101335892Y-82560000D01*
X101383511Y-82536190D01*
X101764464Y-82536190D02*
X101883511Y-83036190D01*
X101978750Y-82679047D01*
X102073988Y-83036190D01*
X102193035Y-82536190D01*
X102359702Y-82583809D02*
X102383511Y-82560000D01*
X102431130Y-82536190D01*
X102550178Y-82536190D01*
X102597797Y-82560000D01*
X102621607Y-82583809D01*
X102645416Y-82631428D01*
X102645416Y-82679047D01*
X102621607Y-82750476D01*
X102335892Y-83036190D01*
X102645416Y-83036190D01*
X102859702Y-82845714D02*
X103240654Y-82845714D01*
X103478750Y-82845714D02*
X103859702Y-82845714D01*
X152711607Y-111167904D02*
X153244940Y-111967904D01*
X153244940Y-111167904D02*
X152711607Y-111967904D01*
X153473511Y-111167904D02*
X154006845Y-111967904D01*
X154006845Y-111167904D02*
X153473511Y-111967904D01*
X154273511Y-111244095D02*
X154311607Y-111206000D01*
X154387797Y-111167904D01*
X154578273Y-111167904D01*
X154654464Y-111206000D01*
X154692559Y-111244095D01*
X154730654Y-111320285D01*
X154730654Y-111396476D01*
X154692559Y-111510761D01*
X154235416Y-111967904D01*
X154730654Y-111967904D01*
X155225892Y-111167904D02*
X155302083Y-111167904D01*
X155378273Y-111206000D01*
X155416369Y-111244095D01*
X155454464Y-111320285D01*
X155492559Y-111472666D01*
X155492559Y-111663142D01*
X155454464Y-111815523D01*
X155416369Y-111891714D01*
X155378273Y-111929809D01*
X155302083Y-111967904D01*
X155225892Y-111967904D01*
X155149702Y-111929809D01*
X155111607Y-111891714D01*
X155073511Y-111815523D01*
X155035416Y-111663142D01*
X155035416Y-111472666D01*
X155073511Y-111320285D01*
X155111607Y-111244095D01*
X155149702Y-111206000D01*
X155225892Y-111167904D01*
X155759226Y-111167904D02*
X156254464Y-111167904D01*
X155987797Y-111472666D01*
X156102083Y-111472666D01*
X156178273Y-111510761D01*
X156216369Y-111548857D01*
X156254464Y-111625047D01*
X156254464Y-111815523D01*
X156216369Y-111891714D01*
X156178273Y-111929809D01*
X156102083Y-111967904D01*
X155873511Y-111967904D01*
X155797321Y-111929809D01*
X155759226Y-111891714D01*
X156749702Y-111167904D02*
X156825892Y-111167904D01*
X156902083Y-111206000D01*
X156940178Y-111244095D01*
X156978273Y-111320285D01*
X157016369Y-111472666D01*
X157016369Y-111663142D01*
X156978273Y-111815523D01*
X156940178Y-111891714D01*
X156902083Y-111929809D01*
X156825892Y-111967904D01*
X156749702Y-111967904D01*
X156673511Y-111929809D01*
X156635416Y-111891714D01*
X156597321Y-111815523D01*
X156559226Y-111663142D01*
X156559226Y-111472666D01*
X156597321Y-111320285D01*
X156635416Y-111244095D01*
X156673511Y-111206000D01*
X156749702Y-111167904D01*
X152711607Y-112836857D02*
X152825892Y-112874952D01*
X152863988Y-112913047D01*
X152902083Y-112989238D01*
X152902083Y-113103523D01*
X152863988Y-113179714D01*
X152825892Y-113217809D01*
X152749702Y-113255904D01*
X152444940Y-113255904D01*
X152444940Y-112455904D01*
X152711607Y-112455904D01*
X152787797Y-112494000D01*
X152825892Y-112532095D01*
X152863988Y-112608285D01*
X152863988Y-112684476D01*
X152825892Y-112760666D01*
X152787797Y-112798761D01*
X152711607Y-112836857D01*
X152444940Y-112836857D01*
X153206845Y-113027333D02*
X153587797Y-113027333D01*
X153130654Y-113255904D02*
X153397321Y-112455904D01*
X153663988Y-113255904D01*
X153816369Y-112455904D02*
X154273511Y-112455904D01*
X154044940Y-113255904D02*
X154044940Y-112455904D01*
X154425892Y-112455904D02*
X154883035Y-112455904D01*
X154654464Y-113255904D02*
X154654464Y-112455904D01*
X155149702Y-112836857D02*
X155416369Y-112836857D01*
X155530654Y-113255904D02*
X155149702Y-113255904D01*
X155149702Y-112455904D01*
X155530654Y-112455904D01*
X156330654Y-113255904D02*
X156063988Y-112874952D01*
X155873511Y-113255904D02*
X155873511Y-112455904D01*
X156178273Y-112455904D01*
X156254464Y-112494000D01*
X156292559Y-112532095D01*
X156330654Y-112608285D01*
X156330654Y-112722571D01*
X156292559Y-112798761D01*
X156254464Y-112836857D01*
X156178273Y-112874952D01*
X155873511Y-112874952D01*
X156825892Y-112874952D02*
X156825892Y-113255904D01*
X156559226Y-112455904D02*
X156825892Y-112874952D01*
X157092559Y-112455904D01*
X101073988Y-85576190D02*
X100907321Y-85338095D01*
X100788273Y-85576190D02*
X100788273Y-85076190D01*
X100978750Y-85076190D01*
X101026369Y-85100000D01*
X101050178Y-85123809D01*
X101073988Y-85171428D01*
X101073988Y-85242857D01*
X101050178Y-85290476D01*
X101026369Y-85314285D01*
X100978750Y-85338095D01*
X100788273Y-85338095D01*
X101383511Y-85076190D02*
X101478750Y-85076190D01*
X101526369Y-85100000D01*
X101573988Y-85147619D01*
X101597797Y-85242857D01*
X101597797Y-85409523D01*
X101573988Y-85504761D01*
X101526369Y-85552380D01*
X101478750Y-85576190D01*
X101383511Y-85576190D01*
X101335892Y-85552380D01*
X101288273Y-85504761D01*
X101264464Y-85409523D01*
X101264464Y-85242857D01*
X101288273Y-85147619D01*
X101335892Y-85100000D01*
X101383511Y-85076190D01*
X101764464Y-85076190D02*
X101883511Y-85576190D01*
X101978750Y-85219047D01*
X102073988Y-85576190D01*
X102193035Y-85076190D01*
X102335892Y-85076190D02*
X102645416Y-85076190D01*
X102478750Y-85266666D01*
X102550178Y-85266666D01*
X102597797Y-85290476D01*
X102621607Y-85314285D01*
X102645416Y-85361904D01*
X102645416Y-85480952D01*
X102621607Y-85528571D01*
X102597797Y-85552380D01*
X102550178Y-85576190D01*
X102407321Y-85576190D01*
X102359702Y-85552380D01*
X102335892Y-85528571D01*
X102859702Y-85385714D02*
X103240654Y-85385714D01*
X103478750Y-85385714D02*
X103859702Y-85385714D01*
X90350297Y-75219344D02*
X90731250Y-75219344D01*
X90969345Y-75219344D02*
X91350297Y-75219344D01*
X91874107Y-75362201D02*
X91850297Y-75386010D01*
X91778869Y-75409820D01*
X91731250Y-75409820D01*
X91659821Y-75386010D01*
X91612202Y-75338391D01*
X91588392Y-75290772D01*
X91564583Y-75195534D01*
X91564583Y-75124106D01*
X91588392Y-75028868D01*
X91612202Y-74981249D01*
X91659821Y-74933630D01*
X91731250Y-74909820D01*
X91778869Y-74909820D01*
X91850297Y-74933630D01*
X91874107Y-74957439D01*
X92183630Y-74909820D02*
X92278869Y-74909820D01*
X92326488Y-74933630D01*
X92374107Y-74981249D01*
X92397916Y-75076487D01*
X92397916Y-75243153D01*
X92374107Y-75338391D01*
X92326488Y-75386010D01*
X92278869Y-75409820D01*
X92183630Y-75409820D01*
X92136011Y-75386010D01*
X92088392Y-75338391D01*
X92064583Y-75243153D01*
X92064583Y-75076487D01*
X92088392Y-74981249D01*
X92136011Y-74933630D01*
X92183630Y-74909820D01*
X92850297Y-75409820D02*
X92612202Y-75409820D01*
X92612202Y-74909820D01*
X93112202Y-74909820D02*
X93159821Y-74909820D01*
X93207440Y-74933630D01*
X93231250Y-74957439D01*
X93255059Y-75005058D01*
X93278869Y-75100296D01*
X93278869Y-75219344D01*
X93255059Y-75314582D01*
X93231250Y-75362201D01*
X93207440Y-75386010D01*
X93159821Y-75409820D01*
X93112202Y-75409820D01*
X93064583Y-75386010D01*
X93040773Y-75362201D01*
X93016964Y-75314582D01*
X92993154Y-75219344D01*
X92993154Y-75100296D01*
X93016964Y-75005058D01*
X93040773Y-74957439D01*
X93064583Y-74933630D01*
X93112202Y-74909820D01*
X90350297Y-65062984D02*
X90731250Y-65062984D01*
X90969345Y-65062984D02*
X91350297Y-65062984D01*
X91516964Y-64753460D02*
X91683630Y-65253460D01*
X91850297Y-64753460D01*
X92302678Y-65205841D02*
X92278869Y-65229650D01*
X92207440Y-65253460D01*
X92159821Y-65253460D01*
X92088392Y-65229650D01*
X92040773Y-65182031D01*
X92016964Y-65134412D01*
X91993154Y-65039174D01*
X91993154Y-64967746D01*
X92016964Y-64872508D01*
X92040773Y-64824889D01*
X92088392Y-64777270D01*
X92159821Y-64753460D01*
X92207440Y-64753460D01*
X92278869Y-64777270D01*
X92302678Y-64801079D01*
X92802678Y-65205841D02*
X92778869Y-65229650D01*
X92707440Y-65253460D01*
X92659821Y-65253460D01*
X92588392Y-65229650D01*
X92540773Y-65182031D01*
X92516964Y-65134412D01*
X92493154Y-65039174D01*
X92493154Y-64967746D01*
X92516964Y-64872508D01*
X92540773Y-64824889D01*
X92588392Y-64777270D01*
X92659821Y-64753460D01*
X92707440Y-64753460D01*
X92778869Y-64777270D01*
X92802678Y-64801079D01*
X90350297Y-59984804D02*
X90731250Y-59984804D01*
X90969345Y-59984804D02*
X91350297Y-59984804D01*
X91850297Y-59699090D02*
X91802678Y-59675280D01*
X91731250Y-59675280D01*
X91659821Y-59699090D01*
X91612202Y-59746709D01*
X91588392Y-59794328D01*
X91564583Y-59889566D01*
X91564583Y-59960994D01*
X91588392Y-60056232D01*
X91612202Y-60103851D01*
X91659821Y-60151470D01*
X91731250Y-60175280D01*
X91778869Y-60175280D01*
X91850297Y-60151470D01*
X91874107Y-60127661D01*
X91874107Y-59960994D01*
X91778869Y-59960994D01*
X92088392Y-60175280D02*
X92088392Y-59675280D01*
X92374107Y-60175280D01*
X92374107Y-59675280D01*
X92612202Y-60175280D02*
X92612202Y-59675280D01*
X92731250Y-59675280D01*
X92802678Y-59699090D01*
X92850297Y-59746709D01*
X92874107Y-59794328D01*
X92897916Y-59889566D01*
X92897916Y-59960994D01*
X92874107Y-60056232D01*
X92850297Y-60103851D01*
X92802678Y-60151470D01*
X92731250Y-60175280D01*
X92612202Y-60175280D01*
X101073988Y-77956190D02*
X100907321Y-77718095D01*
X100788273Y-77956190D02*
X100788273Y-77456190D01*
X100978750Y-77456190D01*
X101026369Y-77480000D01*
X101050178Y-77503809D01*
X101073988Y-77551428D01*
X101073988Y-77622857D01*
X101050178Y-77670476D01*
X101026369Y-77694285D01*
X100978750Y-77718095D01*
X100788273Y-77718095D01*
X101383511Y-77456190D02*
X101478750Y-77456190D01*
X101526369Y-77480000D01*
X101573988Y-77527619D01*
X101597797Y-77622857D01*
X101597797Y-77789523D01*
X101573988Y-77884761D01*
X101526369Y-77932380D01*
X101478750Y-77956190D01*
X101383511Y-77956190D01*
X101335892Y-77932380D01*
X101288273Y-77884761D01*
X101264464Y-77789523D01*
X101264464Y-77622857D01*
X101288273Y-77527619D01*
X101335892Y-77480000D01*
X101383511Y-77456190D01*
X101764464Y-77456190D02*
X101883511Y-77956190D01*
X101978750Y-77599047D01*
X102073988Y-77956190D01*
X102193035Y-77456190D01*
X102478750Y-77456190D02*
X102526369Y-77456190D01*
X102573988Y-77480000D01*
X102597797Y-77503809D01*
X102621607Y-77551428D01*
X102645416Y-77646666D01*
X102645416Y-77765714D01*
X102621607Y-77860952D01*
X102597797Y-77908571D01*
X102573988Y-77932380D01*
X102526369Y-77956190D01*
X102478750Y-77956190D01*
X102431130Y-77932380D01*
X102407321Y-77908571D01*
X102383511Y-77860952D01*
X102359702Y-77765714D01*
X102359702Y-77646666D01*
X102383511Y-77551428D01*
X102407321Y-77503809D01*
X102431130Y-77480000D01*
X102478750Y-77456190D01*
X102859702Y-77765714D02*
X103240654Y-77765714D01*
X103478750Y-77765714D02*
X103859702Y-77765714D01*
X101264464Y-72876190D02*
X101026369Y-72876190D01*
X101026369Y-72376190D01*
X101431130Y-72614285D02*
X101597797Y-72614285D01*
X101669226Y-72876190D02*
X101431130Y-72876190D01*
X101431130Y-72376190D01*
X101669226Y-72376190D01*
X101883511Y-72876190D02*
X101883511Y-72376190D01*
X102002559Y-72376190D01*
X102073988Y-72400000D01*
X102121607Y-72447619D01*
X102145416Y-72495238D01*
X102169226Y-72590476D01*
X102169226Y-72661904D01*
X102145416Y-72757142D01*
X102121607Y-72804761D01*
X102073988Y-72852380D01*
X102002559Y-72876190D01*
X101883511Y-72876190D01*
X102359702Y-72423809D02*
X102383511Y-72400000D01*
X102431130Y-72376190D01*
X102550178Y-72376190D01*
X102597797Y-72400000D01*
X102621607Y-72423809D01*
X102645416Y-72471428D01*
X102645416Y-72519047D01*
X102621607Y-72590476D01*
X102335892Y-72876190D01*
X102645416Y-72876190D01*
X102859702Y-72685714D02*
X103240654Y-72685714D01*
X103478750Y-72685714D02*
X103859702Y-72685714D01*
X91021726Y-88086904D02*
X91021726Y-87286904D01*
X91478869Y-88086904D01*
X91478869Y-87286904D01*
X91859821Y-88086904D02*
X91859821Y-87286904D01*
X92697916Y-88010714D02*
X92659821Y-88048809D01*
X92545535Y-88086904D01*
X92469345Y-88086904D01*
X92355059Y-88048809D01*
X92278869Y-87972619D01*
X92240773Y-87896428D01*
X92202678Y-87744047D01*
X92202678Y-87629761D01*
X92240773Y-87477380D01*
X92278869Y-87401190D01*
X92355059Y-87325000D01*
X92469345Y-87286904D01*
X92545535Y-87286904D01*
X92659821Y-87325000D01*
X92697916Y-87363095D01*
X93040773Y-87667857D02*
X93307440Y-87667857D01*
X93421726Y-88086904D02*
X93040773Y-88086904D01*
X93040773Y-87286904D01*
X93421726Y-87286904D01*
X93764583Y-88010714D02*
X93802678Y-88048809D01*
X93764583Y-88086904D01*
X93726488Y-88048809D01*
X93764583Y-88010714D01*
X93764583Y-88086904D01*
X93764583Y-87782142D02*
X93726488Y-87325000D01*
X93764583Y-87286904D01*
X93802678Y-87325000D01*
X93764583Y-87782142D01*
X93764583Y-87286904D01*
X94145535Y-88086904D02*
X94145535Y-87286904D01*
X94602678Y-88086904D01*
X94602678Y-87286904D01*
X94945535Y-87858333D02*
X95326488Y-87858333D01*
X94869345Y-88086904D02*
X95136011Y-87286904D01*
X95402678Y-88086904D01*
X95669345Y-88086904D02*
X95669345Y-87286904D01*
X96126488Y-88086904D01*
X96126488Y-87286904D01*
X96659821Y-87286904D02*
X96812202Y-87286904D01*
X96888392Y-87325000D01*
X96964583Y-87401190D01*
X97002678Y-87553571D01*
X97002678Y-87820238D01*
X96964583Y-87972619D01*
X96888392Y-88048809D01*
X96812202Y-88086904D01*
X96659821Y-88086904D01*
X96583630Y-88048809D01*
X96507440Y-87972619D01*
X96469345Y-87820238D01*
X96469345Y-87553571D01*
X96507440Y-87401190D01*
X96583630Y-87325000D01*
X96659821Y-87286904D01*
X90350297Y-82836614D02*
X90731250Y-82836614D01*
X90969345Y-82836614D02*
X91350297Y-82836614D01*
X91874107Y-82979471D02*
X91850297Y-83003280D01*
X91778869Y-83027090D01*
X91731250Y-83027090D01*
X91659821Y-83003280D01*
X91612202Y-82955661D01*
X91588392Y-82908042D01*
X91564583Y-82812804D01*
X91564583Y-82741376D01*
X91588392Y-82646138D01*
X91612202Y-82598519D01*
X91659821Y-82550900D01*
X91731250Y-82527090D01*
X91778869Y-82527090D01*
X91850297Y-82550900D01*
X91874107Y-82574709D01*
X92183630Y-82527090D02*
X92278869Y-82527090D01*
X92326488Y-82550900D01*
X92374107Y-82598519D01*
X92397916Y-82693757D01*
X92397916Y-82860423D01*
X92374107Y-82955661D01*
X92326488Y-83003280D01*
X92278869Y-83027090D01*
X92183630Y-83027090D01*
X92136011Y-83003280D01*
X92088392Y-82955661D01*
X92064583Y-82860423D01*
X92064583Y-82693757D01*
X92088392Y-82598519D01*
X92136011Y-82550900D01*
X92183630Y-82527090D01*
X92850297Y-83027090D02*
X92612202Y-83027090D01*
X92612202Y-82527090D01*
X92969345Y-82527090D02*
X93278869Y-82527090D01*
X93112202Y-82717566D01*
X93183630Y-82717566D01*
X93231250Y-82741376D01*
X93255059Y-82765185D01*
X93278869Y-82812804D01*
X93278869Y-82931852D01*
X93255059Y-82979471D01*
X93231250Y-83003280D01*
X93183630Y-83027090D01*
X93040773Y-83027090D01*
X92993154Y-83003280D01*
X92969345Y-82979471D01*
X101597797Y-64780000D02*
X101550178Y-64756190D01*
X101478750Y-64756190D01*
X101407321Y-64780000D01*
X101359702Y-64827619D01*
X101335892Y-64875238D01*
X101312083Y-64970476D01*
X101312083Y-65041904D01*
X101335892Y-65137142D01*
X101359702Y-65184761D01*
X101407321Y-65232380D01*
X101478750Y-65256190D01*
X101526369Y-65256190D01*
X101597797Y-65232380D01*
X101621607Y-65208571D01*
X101621607Y-65041904D01*
X101526369Y-65041904D01*
X101835892Y-65256190D02*
X101835892Y-64756190D01*
X102121607Y-65256190D01*
X102121607Y-64756190D01*
X102359702Y-65256190D02*
X102359702Y-64756190D01*
X102478750Y-64756190D01*
X102550178Y-64780000D01*
X102597797Y-64827619D01*
X102621607Y-64875238D01*
X102645416Y-64970476D01*
X102645416Y-65041904D01*
X102621607Y-65137142D01*
X102597797Y-65184761D01*
X102550178Y-65232380D01*
X102478750Y-65256190D01*
X102359702Y-65256190D01*
X102859702Y-65065714D02*
X103240654Y-65065714D01*
X103478750Y-65065714D02*
X103859702Y-65065714D01*
X90350297Y-57445714D02*
X90731250Y-57445714D01*
X90969345Y-57445714D02*
X91350297Y-57445714D01*
X91588392Y-57445714D02*
X91969345Y-57445714D01*
X91778869Y-57636190D02*
X91778869Y-57255238D01*
X92374107Y-57374285D02*
X92445535Y-57398095D01*
X92469345Y-57421904D01*
X92493154Y-57469523D01*
X92493154Y-57540952D01*
X92469345Y-57588571D01*
X92445535Y-57612380D01*
X92397916Y-57636190D01*
X92207440Y-57636190D01*
X92207440Y-57136190D01*
X92374107Y-57136190D01*
X92421726Y-57160000D01*
X92445535Y-57183809D01*
X92469345Y-57231428D01*
X92469345Y-57279047D01*
X92445535Y-57326666D01*
X92421726Y-57350476D01*
X92374107Y-57374285D01*
X92207440Y-57374285D01*
X92683630Y-57493333D02*
X92921726Y-57493333D01*
X92636011Y-57636190D02*
X92802678Y-57136190D01*
X92969345Y-57636190D01*
X93064583Y-57136190D02*
X93350297Y-57136190D01*
X93207440Y-57636190D02*
X93207440Y-57136190D01*
X93445535Y-57136190D02*
X93731250Y-57136190D01*
X93588392Y-57636190D02*
X93588392Y-57136190D01*
X101264464Y-75416190D02*
X101026369Y-75416190D01*
X101026369Y-74916190D01*
X101431130Y-75154285D02*
X101597797Y-75154285D01*
X101669226Y-75416190D02*
X101431130Y-75416190D01*
X101431130Y-74916190D01*
X101669226Y-74916190D01*
X101883511Y-75416190D02*
X101883511Y-74916190D01*
X102002559Y-74916190D01*
X102073988Y-74940000D01*
X102121607Y-74987619D01*
X102145416Y-75035238D01*
X102169226Y-75130476D01*
X102169226Y-75201904D01*
X102145416Y-75297142D01*
X102121607Y-75344761D01*
X102073988Y-75392380D01*
X102002559Y-75416190D01*
X101883511Y-75416190D01*
X102335892Y-74916190D02*
X102645416Y-74916190D01*
X102478750Y-75106666D01*
X102550178Y-75106666D01*
X102597797Y-75130476D01*
X102621607Y-75154285D01*
X102645416Y-75201904D01*
X102645416Y-75320952D01*
X102621607Y-75368571D01*
X102597797Y-75392380D01*
X102550178Y-75416190D01*
X102407321Y-75416190D01*
X102359702Y-75392380D01*
X102335892Y-75368571D01*
X102859702Y-75225714D02*
X103240654Y-75225714D01*
X103478750Y-75225714D02*
X103859702Y-75225714D01*
X90350297Y-85375714D02*
X90731250Y-85375714D01*
X90969345Y-85375714D02*
X91350297Y-85375714D01*
X91874107Y-85518571D02*
X91850297Y-85542380D01*
X91778869Y-85566190D01*
X91731250Y-85566190D01*
X91659821Y-85542380D01*
X91612202Y-85494761D01*
X91588392Y-85447142D01*
X91564583Y-85351904D01*
X91564583Y-85280476D01*
X91588392Y-85185238D01*
X91612202Y-85137619D01*
X91659821Y-85090000D01*
X91731250Y-85066190D01*
X91778869Y-85066190D01*
X91850297Y-85090000D01*
X91874107Y-85113809D01*
X92183630Y-85066190D02*
X92278869Y-85066190D01*
X92326488Y-85090000D01*
X92374107Y-85137619D01*
X92397916Y-85232857D01*
X92397916Y-85399523D01*
X92374107Y-85494761D01*
X92326488Y-85542380D01*
X92278869Y-85566190D01*
X92183630Y-85566190D01*
X92136011Y-85542380D01*
X92088392Y-85494761D01*
X92064583Y-85399523D01*
X92064583Y-85232857D01*
X92088392Y-85137619D01*
X92136011Y-85090000D01*
X92183630Y-85066190D01*
X92850297Y-85566190D02*
X92612202Y-85566190D01*
X92612202Y-85066190D01*
X93231250Y-85232857D02*
X93231250Y-85566190D01*
X93112202Y-85042380D02*
X92993154Y-85399523D01*
X93302678Y-85399523D01*
X90350297Y-70141164D02*
X90731250Y-70141164D01*
X90969345Y-70141164D02*
X91350297Y-70141164D01*
X91588392Y-70069735D02*
X91755059Y-70069735D01*
X91826488Y-70331640D02*
X91588392Y-70331640D01*
X91588392Y-69831640D01*
X91826488Y-69831640D01*
X92040773Y-70331640D02*
X92040773Y-69831640D01*
X92326488Y-70331640D01*
X92326488Y-69831640D01*
X92850297Y-70284021D02*
X92826488Y-70307830D01*
X92755059Y-70331640D01*
X92707440Y-70331640D01*
X92636011Y-70307830D01*
X92588392Y-70260211D01*
X92564583Y-70212592D01*
X92540773Y-70117354D01*
X92540773Y-70045926D01*
X92564583Y-69950688D01*
X92588392Y-69903069D01*
X92636011Y-69855450D01*
X92707440Y-69831640D01*
X92755059Y-69831640D01*
X92826488Y-69855450D01*
X92850297Y-69879259D01*
X93040773Y-70188783D02*
X93278869Y-70188783D01*
X92993154Y-70331640D02*
X93159821Y-69831640D01*
X93326488Y-70331640D01*
X101073988Y-80496190D02*
X100907321Y-80258095D01*
X100788273Y-80496190D02*
X100788273Y-79996190D01*
X100978750Y-79996190D01*
X101026369Y-80020000D01*
X101050178Y-80043809D01*
X101073988Y-80091428D01*
X101073988Y-80162857D01*
X101050178Y-80210476D01*
X101026369Y-80234285D01*
X100978750Y-80258095D01*
X100788273Y-80258095D01*
X101383511Y-79996190D02*
X101478750Y-79996190D01*
X101526369Y-80020000D01*
X101573988Y-80067619D01*
X101597797Y-80162857D01*
X101597797Y-80329523D01*
X101573988Y-80424761D01*
X101526369Y-80472380D01*
X101478750Y-80496190D01*
X101383511Y-80496190D01*
X101335892Y-80472380D01*
X101288273Y-80424761D01*
X101264464Y-80329523D01*
X101264464Y-80162857D01*
X101288273Y-80067619D01*
X101335892Y-80020000D01*
X101383511Y-79996190D01*
X101764464Y-79996190D02*
X101883511Y-80496190D01*
X101978750Y-80139047D01*
X102073988Y-80496190D01*
X102193035Y-79996190D01*
X102645416Y-80496190D02*
X102359702Y-80496190D01*
X102502559Y-80496190D02*
X102502559Y-79996190D01*
X102454940Y-80067619D01*
X102407321Y-80115238D01*
X102359702Y-80139047D01*
X102859702Y-80305714D02*
X103240654Y-80305714D01*
X103478750Y-80305714D02*
X103859702Y-80305714D01*
X85573333Y-95876190D02*
X85573333Y-95376190D01*
X85763809Y-95376190D01*
X85811428Y-95400000D01*
X85835238Y-95423809D01*
X85859047Y-95471428D01*
X85859047Y-95542857D01*
X85835238Y-95590476D01*
X85811428Y-95614285D01*
X85763809Y-95638095D01*
X85573333Y-95638095D01*
X86025714Y-95376190D02*
X86144761Y-95876190D01*
X86240000Y-95519047D01*
X86335238Y-95876190D01*
X86454285Y-95376190D01*
X86930476Y-95876190D02*
X86763809Y-95638095D01*
X86644761Y-95876190D02*
X86644761Y-95376190D01*
X86835238Y-95376190D01*
X86882857Y-95400000D01*
X86906666Y-95423809D01*
X86930476Y-95471428D01*
X86930476Y-95542857D01*
X86906666Y-95590476D01*
X86882857Y-95614285D01*
X86835238Y-95638095D01*
X86644761Y-95638095D01*
X90350297Y-62523894D02*
X90731250Y-62523894D01*
X90969345Y-62523894D02*
X91350297Y-62523894D01*
X91874107Y-62714370D02*
X91707440Y-62476275D01*
X91588392Y-62714370D02*
X91588392Y-62214370D01*
X91778869Y-62214370D01*
X91826488Y-62238180D01*
X91850297Y-62261989D01*
X91874107Y-62309608D01*
X91874107Y-62381037D01*
X91850297Y-62428656D01*
X91826488Y-62452465D01*
X91778869Y-62476275D01*
X91588392Y-62476275D01*
X92064583Y-62690560D02*
X92136011Y-62714370D01*
X92255059Y-62714370D01*
X92302678Y-62690560D01*
X92326488Y-62666751D01*
X92350297Y-62619132D01*
X92350297Y-62571513D01*
X92326488Y-62523894D01*
X92302678Y-62500084D01*
X92255059Y-62476275D01*
X92159821Y-62452465D01*
X92112202Y-62428656D01*
X92088392Y-62404846D01*
X92064583Y-62357227D01*
X92064583Y-62309608D01*
X92088392Y-62261989D01*
X92112202Y-62238180D01*
X92159821Y-62214370D01*
X92278869Y-62214370D01*
X92350297Y-62238180D01*
X92493154Y-62214370D02*
X92778869Y-62214370D01*
X92636011Y-62714370D02*
X92636011Y-62214370D01*
X90350297Y-77758434D02*
X90731250Y-77758434D01*
X90969345Y-77758434D02*
X91350297Y-77758434D01*
X91874107Y-77901291D02*
X91850297Y-77925100D01*
X91778869Y-77948910D01*
X91731250Y-77948910D01*
X91659821Y-77925100D01*
X91612202Y-77877481D01*
X91588392Y-77829862D01*
X91564583Y-77734624D01*
X91564583Y-77663196D01*
X91588392Y-77567958D01*
X91612202Y-77520339D01*
X91659821Y-77472720D01*
X91731250Y-77448910D01*
X91778869Y-77448910D01*
X91850297Y-77472720D01*
X91874107Y-77496529D01*
X92183630Y-77448910D02*
X92278869Y-77448910D01*
X92326488Y-77472720D01*
X92374107Y-77520339D01*
X92397916Y-77615577D01*
X92397916Y-77782243D01*
X92374107Y-77877481D01*
X92326488Y-77925100D01*
X92278869Y-77948910D01*
X92183630Y-77948910D01*
X92136011Y-77925100D01*
X92088392Y-77877481D01*
X92064583Y-77782243D01*
X92064583Y-77615577D01*
X92088392Y-77520339D01*
X92136011Y-77472720D01*
X92183630Y-77448910D01*
X92850297Y-77948910D02*
X92612202Y-77948910D01*
X92612202Y-77448910D01*
X93278869Y-77948910D02*
X92993154Y-77948910D01*
X93136011Y-77948910D02*
X93136011Y-77448910D01*
X93088392Y-77520339D01*
X93040773Y-77567958D01*
X92993154Y-77591767D01*
X101597797Y-62240000D02*
X101550178Y-62216190D01*
X101478750Y-62216190D01*
X101407321Y-62240000D01*
X101359702Y-62287619D01*
X101335892Y-62335238D01*
X101312083Y-62430476D01*
X101312083Y-62501904D01*
X101335892Y-62597142D01*
X101359702Y-62644761D01*
X101407321Y-62692380D01*
X101478750Y-62716190D01*
X101526369Y-62716190D01*
X101597797Y-62692380D01*
X101621607Y-62668571D01*
X101621607Y-62501904D01*
X101526369Y-62501904D01*
X101835892Y-62716190D02*
X101835892Y-62216190D01*
X102121607Y-62716190D01*
X102121607Y-62216190D01*
X102359702Y-62716190D02*
X102359702Y-62216190D01*
X102478750Y-62216190D01*
X102550178Y-62240000D01*
X102597797Y-62287619D01*
X102621607Y-62335238D01*
X102645416Y-62430476D01*
X102645416Y-62501904D01*
X102621607Y-62597142D01*
X102597797Y-62644761D01*
X102550178Y-62692380D01*
X102478750Y-62716190D01*
X102359702Y-62716190D01*
X102859702Y-62525714D02*
X103240654Y-62525714D01*
X103478750Y-62525714D02*
X103859702Y-62525714D01*
X90350297Y-80297524D02*
X90731250Y-80297524D01*
X90969345Y-80297524D02*
X91350297Y-80297524D01*
X91874107Y-80440381D02*
X91850297Y-80464190D01*
X91778869Y-80488000D01*
X91731250Y-80488000D01*
X91659821Y-80464190D01*
X91612202Y-80416571D01*
X91588392Y-80368952D01*
X91564583Y-80273714D01*
X91564583Y-80202286D01*
X91588392Y-80107048D01*
X91612202Y-80059429D01*
X91659821Y-80011810D01*
X91731250Y-79988000D01*
X91778869Y-79988000D01*
X91850297Y-80011810D01*
X91874107Y-80035619D01*
X92183630Y-79988000D02*
X92278869Y-79988000D01*
X92326488Y-80011810D01*
X92374107Y-80059429D01*
X92397916Y-80154667D01*
X92397916Y-80321333D01*
X92374107Y-80416571D01*
X92326488Y-80464190D01*
X92278869Y-80488000D01*
X92183630Y-80488000D01*
X92136011Y-80464190D01*
X92088392Y-80416571D01*
X92064583Y-80321333D01*
X92064583Y-80154667D01*
X92088392Y-80059429D01*
X92136011Y-80011810D01*
X92183630Y-79988000D01*
X92850297Y-80488000D02*
X92612202Y-80488000D01*
X92612202Y-79988000D01*
X92993154Y-80035619D02*
X93016964Y-80011810D01*
X93064583Y-79988000D01*
X93183630Y-79988000D01*
X93231250Y-80011810D01*
X93255059Y-80035619D01*
X93278869Y-80083238D01*
X93278869Y-80130857D01*
X93255059Y-80202286D01*
X92969345Y-80488000D01*
X93278869Y-80488000D01*
D10*
X111658095Y-57181904D02*
X111391428Y-56800952D01*
X111200952Y-57181904D02*
X111200952Y-56381904D01*
X111505714Y-56381904D01*
X111581904Y-56420000D01*
X111620000Y-56458095D01*
X111658095Y-56534285D01*
X111658095Y-56648571D01*
X111620000Y-56724761D01*
X111581904Y-56762857D01*
X111505714Y-56800952D01*
X111200952Y-56800952D01*
X112000952Y-56762857D02*
X112267619Y-56762857D01*
X112381904Y-57181904D02*
X112000952Y-57181904D01*
X112000952Y-56381904D01*
X112381904Y-56381904D01*
X112686666Y-57143809D02*
X112800952Y-57181904D01*
X112991428Y-57181904D01*
X113067619Y-57143809D01*
X113105714Y-57105714D01*
X113143809Y-57029523D01*
X113143809Y-56953333D01*
X113105714Y-56877142D01*
X113067619Y-56839047D01*
X112991428Y-56800952D01*
X112839047Y-56762857D01*
X112762857Y-56724761D01*
X112724761Y-56686666D01*
X112686666Y-56610476D01*
X112686666Y-56534285D01*
X112724761Y-56458095D01*
X112762857Y-56420000D01*
X112839047Y-56381904D01*
X113029523Y-56381904D01*
X113143809Y-56420000D01*
X113486666Y-56762857D02*
X113753333Y-56762857D01*
X113867619Y-57181904D02*
X113486666Y-57181904D01*
X113486666Y-56381904D01*
X113867619Y-56381904D01*
X114096190Y-56381904D02*
X114553333Y-56381904D01*
X114324761Y-57181904D02*
X114324761Y-56381904D01*
X161439285Y-130828571D02*
X161582142Y-130876190D01*
X161629761Y-130923809D01*
X161677380Y-131019047D01*
X161677380Y-131161904D01*
X161629761Y-131257142D01*
X161582142Y-131304761D01*
X161486904Y-131352380D01*
X161105952Y-131352380D01*
X161105952Y-130352380D01*
X161439285Y-130352380D01*
X161534523Y-130400000D01*
X161582142Y-130447619D01*
X161629761Y-130542857D01*
X161629761Y-130638095D01*
X161582142Y-130733333D01*
X161534523Y-130780952D01*
X161439285Y-130828571D01*
X161105952Y-130828571D01*
X161963095Y-130352380D02*
X162534523Y-130352380D01*
X162248809Y-131352380D02*
X162248809Y-130352380D01*
X163391666Y-131352380D02*
X162820238Y-131352380D01*
X163105952Y-131352380D02*
X163105952Y-130352380D01*
X163010714Y-130495238D01*
X162915476Y-130590476D01*
X162820238Y-130638095D01*
D12*
X181743019Y-59748792D02*
X180918219Y-60573592D01*
X178493019Y-59573592D02*
X178493019Y-57478792D01*
D15*
X181743019Y-60470792D02*
X181743019Y-61486792D01*
D12*
X179493019Y-60573592D02*
X178493019Y-59573592D01*
X179493019Y-56478792D02*
X180993019Y-56478792D01*
X178493019Y-57478792D02*
X179493019Y-56478792D01*
X181743019Y-57228792D02*
X181743019Y-59748792D01*
X179493019Y-60573592D02*
X180918219Y-60573592D01*
X180993019Y-56478792D02*
X181743019Y-57228792D01*
D15*
X181235019Y-60978792D02*
X182251019Y-60978792D01*
X178235019Y-60978792D02*
X179251019Y-60978792D01*
D10*
X153370000Y-62080000D02*
X152470000Y-61380000D01*
X152470000Y-61380000D02*
X153370000Y-60680000D01*
X152470000Y-60680000D02*
X152470000Y-62080000D01*
X153370000Y-60680000D02*
X153370000Y-62080000D01*
X135320000Y-103370000D02*
X134420000Y-102670000D01*
X134420000Y-102670000D02*
X135320000Y-101970000D01*
X134420000Y-101970000D02*
X134420000Y-103370000D01*
X135320000Y-101970000D02*
X135320000Y-103370000D01*
X165882000Y-128361000D02*
X168168000Y-128361000D01*
X168168000Y-130139000D02*
X165882000Y-130139000D01*
X168168000Y-128361000D02*
X168168000Y-130139000D01*
X165882000Y-130139000D02*
X165882000Y-128361000D01*
X145944862Y-52765117D02*
X145944862Y-52165117D01*
X154944862Y-54165117D02*
X154444862Y-54665117D01*
X145944862Y-65365117D02*
X145944862Y-64365117D01*
X154944862Y-50665117D02*
X154444862Y-50165117D01*
X154444862Y-50165117D02*
X151444862Y-50165117D01*
X150944862Y-51665117D02*
X150944862Y-50665117D01*
X154444862Y-54665117D02*
X151944862Y-54665117D01*
X145944862Y-52365117D02*
X145944862Y-51365117D01*
X145944862Y-52165117D02*
X150444862Y-52165117D01*
X158944862Y-51365117D02*
X159944862Y-51365117D01*
X159944862Y-65365117D02*
X158944862Y-65365117D01*
X150444862Y-56165117D02*
X150444862Y-56865117D01*
X145944862Y-51365117D02*
X146944862Y-51365117D01*
X151444862Y-50165117D02*
X150944862Y-50665117D01*
X150444862Y-56865117D02*
X145944862Y-56865117D01*
X146944862Y-65365117D02*
X145944862Y-65365117D01*
X159944862Y-51365117D02*
X159944862Y-52365117D01*
X145944862Y-56865117D02*
X145944862Y-56365117D01*
X159944862Y-64365117D02*
X159944862Y-65365117D01*
X150444862Y-52165117D02*
G75*
G03*
X150944862Y-51665117I-1J500001D01*
G01*
X151944862Y-54665117D02*
G75*
G03*
X150444862Y-56165117I1J-1500001D01*
G01*
X192793423Y-85777974D02*
X193801304Y-85244892D01*
X193558196Y-86623623D02*
X192793423Y-85777974D01*
X192914977Y-85088608D02*
X192671869Y-86467339D01*
X193801304Y-85244892D02*
X193558196Y-86623623D01*
D12*
X176028504Y-59438721D02*
X175203704Y-60263521D01*
D15*
X172520504Y-60668721D02*
X173536504Y-60668721D01*
X176028504Y-60160721D02*
X176028504Y-61176721D01*
D12*
X173778504Y-56168721D02*
X175278504Y-56168721D01*
X172778504Y-57168721D02*
X173778504Y-56168721D01*
X173778504Y-60263521D02*
X175203704Y-60263521D01*
X172778504Y-59263521D02*
X172778504Y-57168721D01*
X176028504Y-56918721D02*
X176028504Y-59438721D01*
X175278504Y-56168721D02*
X176028504Y-56918721D01*
D15*
X175520504Y-60668721D02*
X176536504Y-60668721D01*
D12*
X173778504Y-60263521D02*
X172778504Y-59263521D01*
D10*
X109820000Y-58570000D02*
X109820000Y-58320000D01*
X115820000Y-55070000D02*
X115820000Y-55320000D01*
X115820000Y-58570000D02*
X109820000Y-58570000D01*
X109820000Y-55070000D02*
X109820000Y-55320000D01*
X115820000Y-58570000D02*
X115820000Y-58320000D01*
X115820000Y-55070000D02*
X109820000Y-55070000D01*
X181984299Y-109239864D02*
X182157947Y-108255056D01*
X187782767Y-108028352D02*
X187203539Y-108433932D01*
X182157947Y-108255056D02*
X183142755Y-108428705D01*
X185756071Y-113763550D02*
X185634517Y-114452916D01*
X190535002Y-112575352D02*
X189955774Y-112980932D01*
X190737191Y-108549297D02*
X187782767Y-108028352D01*
X194960448Y-110512483D02*
X195945256Y-110686131D01*
X191142770Y-109128525D02*
X190737191Y-108549297D01*
X195945256Y-110686131D02*
X195771607Y-111670939D01*
X189955774Y-112980932D02*
X187493755Y-112546811D01*
X181202882Y-113671499D02*
X181289706Y-113179095D01*
X187029891Y-109418740D02*
X187203539Y-108433932D01*
X182019028Y-109042903D02*
X186450663Y-109824319D01*
X185634517Y-114452916D02*
X181202882Y-113671499D01*
X180711680Y-122216013D02*
X179726872Y-122042365D01*
X181914840Y-109633787D02*
X182019028Y-109042903D01*
X179726872Y-122042365D02*
X179900521Y-121057557D01*
X193514181Y-124473440D02*
X192529373Y-124299791D01*
X193687829Y-123488632D02*
X193514181Y-124473440D01*
X187493755Y-112546811D02*
G75*
G03*
X185756071Y-113763550I-260472J-1477213D01*
G01*
X186450663Y-109824318D02*
G75*
G03*
X187029891Y-109418740I86824J492404D01*
G01*
D12*
X190885000Y-58952064D02*
X190885000Y-57747936D01*
X189065000Y-58952064D02*
X189065000Y-57747936D01*
D10*
X136952431Y-95441867D02*
X136452431Y-95941867D01*
X141952431Y-92641867D02*
X141952431Y-93641867D01*
X136452431Y-95941867D02*
X133952431Y-95941867D01*
X132452431Y-97441867D02*
X132452431Y-98141867D01*
X127952431Y-93441867D02*
X132452431Y-93441867D01*
X141952431Y-106641867D02*
X140952431Y-106641867D01*
X127952431Y-92641867D02*
X128952431Y-92641867D01*
X140952431Y-92641867D02*
X141952431Y-92641867D01*
X136952431Y-91941867D02*
X136452431Y-91441867D01*
X127952431Y-98141867D02*
X127952431Y-97641867D01*
X128952431Y-106641867D02*
X127952431Y-106641867D01*
X127952431Y-93641867D02*
X127952431Y-92641867D01*
X136452431Y-91441867D02*
X133452431Y-91441867D01*
X127952431Y-106641867D02*
X127952431Y-105641867D01*
X132452431Y-98141867D02*
X127952431Y-98141867D01*
X132952431Y-92941867D02*
X132952431Y-91941867D01*
X133452431Y-91441867D02*
X132952431Y-91941867D01*
X127952431Y-94041867D02*
X127952431Y-93441867D01*
X141952431Y-105641867D02*
X141952431Y-106641867D01*
X133952431Y-95941867D02*
G75*
G03*
X132452431Y-97441867I1J-1500001D01*
G01*
X132452431Y-93441867D02*
G75*
G03*
X132952431Y-92941867I-1J500001D01*
G01*
X116490000Y-87670000D02*
X116490000Y-89070000D01*
X117390000Y-87670000D02*
X117390000Y-89070000D01*
X117390000Y-89070000D02*
X116490000Y-88370000D01*
X116490000Y-88370000D02*
X117390000Y-87670000D01*
X135320000Y-86370000D02*
X134420000Y-85670000D01*
X134420000Y-84970000D02*
X134420000Y-86370000D01*
X135320000Y-84970000D02*
X135320000Y-86370000D01*
X134420000Y-85670000D02*
X135320000Y-84970000D01*
D16*
X124558276Y-92875622D02*
G75*
G03*
X125226464Y-97100482I20491676J1075616D01*
G01*
X126448047Y-83137722D02*
G75*
G03*
X125056371Y-87182369I18601936J-8662273D01*
G01*
X163651954Y-100462276D02*
G75*
G03*
X165043629Y-96417631I-18602003J8662292D01*
G01*
X165541724Y-90724378D02*
G75*
G03*
X164873537Y-86499520I-20491743J-1075626D01*
G01*
D12*
X164085000Y-128210000D02*
X164085000Y-129425000D01*
X161725000Y-126350000D02*
X161725000Y-121990000D01*
X164365000Y-129810000D02*
X165285000Y-129810000D01*
X163525000Y-124250000D02*
X163525000Y-125850000D01*
X160925000Y-125850000D02*
X159925000Y-125850000D01*
X162725000Y-121990000D02*
X162725000Y-126350000D01*
X159165000Y-128210000D02*
X160085000Y-128210000D01*
X164025000Y-124250000D02*
X164025000Y-121990000D01*
X159925000Y-124250000D02*
X160925000Y-124250000D01*
X159165000Y-121990000D02*
X159165000Y-129810000D01*
X165285000Y-121990000D02*
X159165000Y-121990000D01*
X165285000Y-129810000D02*
X165285000Y-121990000D01*
X160925000Y-124250000D02*
X160925000Y-125850000D01*
X164525000Y-124250000D02*
X163525000Y-124250000D01*
X164525000Y-125850000D02*
X164525000Y-124250000D01*
X164085000Y-128210000D02*
X164365000Y-128210000D01*
X160085000Y-128210000D02*
X160365000Y-128210000D01*
X165285000Y-128210000D02*
X164365000Y-128210000D01*
X159165000Y-129810000D02*
X160085000Y-129810000D01*
X162725000Y-126350000D02*
X161725000Y-126350000D01*
X163525000Y-125850000D02*
X164525000Y-125850000D01*
X159925000Y-125850000D02*
X159925000Y-124250000D01*
X164365000Y-128210000D02*
X164365000Y-129810000D01*
X163525000Y-124250000D02*
X163525000Y-121990000D01*
X160085000Y-129810000D02*
X160085000Y-128210000D01*
D10*
X173469547Y-95522234D02*
X173005643Y-94988573D01*
X173005643Y-94988573D02*
X170012951Y-94779304D01*
X163466050Y-109558617D02*
X163535807Y-108561053D01*
X170012951Y-94779304D02*
X169479291Y-95243208D01*
X177410974Y-96499554D02*
X178408538Y-96569311D01*
X164344982Y-96989310D02*
X164386836Y-96390772D01*
X173225399Y-99013708D02*
X172691739Y-99477612D01*
X164463614Y-109628374D02*
X163466050Y-109558617D01*
X164442641Y-95592720D02*
X165440205Y-95662477D01*
X168596848Y-100694932D02*
X168548019Y-101393227D01*
X164386836Y-96390772D02*
X168875874Y-96704676D01*
X172691739Y-99477612D02*
X170197829Y-99303221D01*
X177501704Y-109537644D02*
X177431947Y-110535208D01*
X178408538Y-96569311D02*
X178338781Y-97566875D01*
X168548019Y-101393227D02*
X164058980Y-101079323D01*
X177431947Y-110535208D02*
X176434383Y-110465451D01*
X164058980Y-101079323D02*
X164093859Y-100580541D01*
X169409534Y-96240772D02*
X169479291Y-95243208D01*
X164372884Y-96590284D02*
X164442641Y-95592720D01*
X168875874Y-96704676D02*
G75*
G03*
X169409534Y-96240772I34877J498783D01*
G01*
X170197829Y-99303221D02*
G75*
G03*
X168596848Y-100694932I-104634J-1496347D01*
G01*
X186867596Y-119273176D02*
X187875477Y-118740094D01*
X187875477Y-118740094D02*
X187632369Y-120118825D01*
X187632369Y-120118825D02*
X186867596Y-119273176D01*
X186989150Y-118583810D02*
X186746042Y-119962541D01*
X145944862Y-69334448D02*
X145944862Y-68334448D01*
X154944862Y-71134448D02*
X154444862Y-71634448D01*
X159944862Y-68334448D02*
X159944862Y-69334448D01*
X145944862Y-69134448D02*
X150444862Y-69134448D01*
X159944862Y-82334448D02*
X158944862Y-82334448D01*
X145944862Y-68334448D02*
X146944862Y-68334448D01*
X150444862Y-73834448D02*
X145944862Y-73834448D01*
X146944862Y-82334448D02*
X145944862Y-82334448D01*
X151444862Y-67134448D02*
X150944862Y-67634448D01*
X150944862Y-68634448D02*
X150944862Y-67634448D01*
X145944862Y-82334448D02*
X145944862Y-81334448D01*
X158944862Y-68334448D02*
X159944862Y-68334448D01*
X150444862Y-73134448D02*
X150444862Y-73834448D01*
X145944862Y-69734448D02*
X145944862Y-69134448D01*
X154944862Y-67634448D02*
X154444862Y-67134448D01*
X154444862Y-71634448D02*
X151944862Y-71634448D01*
X159944862Y-81334448D02*
X159944862Y-82334448D01*
X145944862Y-73834448D02*
X145944862Y-73334448D01*
X154444862Y-67134448D02*
X151444862Y-67134448D01*
X150444862Y-69134448D02*
G75*
G03*
X150944862Y-68634448I-1J500001D01*
G01*
X151944862Y-71634448D02*
G75*
G03*
X150444862Y-73134448I1J-1500001D01*
G01*
X175589114Y-65110319D02*
X175055454Y-65574223D01*
X175369358Y-61085184D02*
X172376666Y-60875915D01*
X165829765Y-75655228D02*
X165899522Y-74657664D01*
X172376666Y-60875915D02*
X171843006Y-61339819D01*
X166422695Y-67175934D02*
X166457574Y-66677152D01*
X166708697Y-63085921D02*
X166750551Y-62487383D01*
X179865419Y-75634255D02*
X179795662Y-76631819D01*
X180772253Y-62665922D02*
X180702496Y-63663486D01*
X171773249Y-62337383D02*
X171843006Y-61339819D01*
X170960563Y-66791543D02*
X170911734Y-67489838D01*
X166806356Y-61689331D02*
X167803920Y-61759088D01*
X179774689Y-62596165D02*
X180772253Y-62665922D01*
X166750551Y-62487383D02*
X171239589Y-62801287D01*
X166827329Y-75724985D02*
X165829765Y-75655228D01*
X175055454Y-65574223D02*
X172561544Y-65399832D01*
X166736599Y-62686895D02*
X166806356Y-61689331D01*
X170911734Y-67489838D02*
X166422695Y-67175934D01*
X175833262Y-61618845D02*
X175369358Y-61085184D01*
X179795662Y-76631819D02*
X178798098Y-76562062D01*
X172561544Y-65399832D02*
G75*
G03*
X170960563Y-66791543I-104634J-1496347D01*
G01*
X171239589Y-62801287D02*
G75*
G03*
X171773249Y-62337383I34877J498783D01*
G01*
X179572750Y-79635258D02*
X179502993Y-80632822D01*
X170573746Y-79306719D02*
X170643503Y-78309155D01*
X169761060Y-83760879D02*
X169712231Y-84459174D01*
X178596159Y-93601155D02*
X177598595Y-93531398D01*
X171177163Y-77845251D02*
X170643503Y-78309155D01*
X165509194Y-80055257D02*
X165551048Y-79456719D01*
X165551048Y-79456719D02*
X170040086Y-79770623D01*
X165537096Y-79656231D02*
X165606853Y-78658667D01*
X178575186Y-79565501D02*
X179572750Y-79635258D01*
X164630262Y-92624564D02*
X164700019Y-91627000D01*
X174633759Y-78588181D02*
X174169855Y-78054520D01*
X174169855Y-78054520D02*
X171177163Y-77845251D01*
X165606853Y-78658667D02*
X166604417Y-78728424D01*
X178665916Y-92603591D02*
X178596159Y-93601155D01*
X165627826Y-92694321D02*
X164630262Y-92624564D01*
X169712231Y-84459174D02*
X165223192Y-84145270D01*
X173855951Y-82543559D02*
X171362041Y-82369168D01*
X174389611Y-82079655D02*
X173855951Y-82543559D01*
X165223192Y-84145270D02*
X165258071Y-83646488D01*
X170040086Y-79770623D02*
G75*
G03*
X170573746Y-79306719I34877J498783D01*
G01*
X171362041Y-82369168D02*
G75*
G03*
X169761060Y-83760879I-104634J-1496347D01*
G01*
X158944862Y-85339060D02*
X159944862Y-85339060D01*
X159944862Y-99339060D02*
X158944862Y-99339060D01*
X159944862Y-85339060D02*
X159944862Y-86339060D01*
X154944862Y-84639060D02*
X154444862Y-84139060D01*
X154944862Y-88139060D02*
X154444862Y-88639060D01*
X150444862Y-90139060D02*
X150444862Y-90839060D01*
X145944862Y-86139060D02*
X150444862Y-86139060D01*
X154444862Y-84139060D02*
X151444862Y-84139060D01*
X154444862Y-88639060D02*
X151944862Y-88639060D01*
X145944862Y-86339060D02*
X145944862Y-85339060D01*
X145944862Y-86739060D02*
X145944862Y-86139060D01*
X145944862Y-99339060D02*
X145944862Y-98339060D01*
X150944862Y-85639060D02*
X150944862Y-84639060D01*
X145944862Y-85339060D02*
X146944862Y-85339060D01*
X151444862Y-84139060D02*
X150944862Y-84639060D01*
X150444862Y-90839060D02*
X145944862Y-90839060D01*
X146944862Y-99339060D02*
X145944862Y-99339060D01*
X145944862Y-90839060D02*
X145944862Y-90339060D01*
X159944862Y-98339060D02*
X159944862Y-99339060D01*
X151944862Y-88639060D02*
G75*
G03*
X150444862Y-90139060I1J-1500001D01*
G01*
X150444862Y-86139060D02*
G75*
G03*
X150944862Y-85639060I-1J500001D01*
G01*
X91986804Y-130938123D02*
X91847631Y-129947855D01*
X95162618Y-121201378D02*
X95260039Y-121894566D01*
X95031473Y-116675585D02*
X94892300Y-115685317D01*
X105711384Y-127999432D02*
X105850557Y-128989700D01*
X90803833Y-122520845D02*
X90734246Y-122025711D01*
X103902134Y-115125947D02*
X104041307Y-116116215D01*
X105850557Y-128989700D02*
X104860289Y-129128873D01*
X99340478Y-118594563D02*
X98914931Y-119159283D01*
X98853372Y-115128625D02*
X98288652Y-114703077D01*
X90038381Y-117074370D02*
X91028649Y-116935197D01*
X90233223Y-118460746D02*
X90149719Y-117866585D01*
X90149719Y-117866585D02*
X94605926Y-117240306D01*
X98288652Y-114703077D02*
X95317847Y-115120596D01*
X102911866Y-115265120D02*
X103902134Y-115125947D01*
X98914931Y-119159283D02*
X96439260Y-119507216D01*
X90177554Y-118064638D02*
X90038381Y-117074370D01*
X92977072Y-130798950D02*
X91986804Y-130938123D01*
X95260039Y-121894566D02*
X90803833Y-122520845D01*
X95317847Y-115120596D02*
X94892300Y-115685317D01*
X96439260Y-119507216D02*
G75*
G03*
X95162618Y-121201378I208761J-1485403D01*
G01*
X94605926Y-117240306D02*
G75*
G03*
X95031473Y-116675585I-69588J495135D01*
G01*
X153370000Y-77680000D02*
X153370000Y-79080000D01*
X152470000Y-78380000D02*
X153370000Y-77680000D01*
X152470000Y-77680000D02*
X152470000Y-79080000D01*
X153370000Y-79080000D02*
X152470000Y-78380000D01*
X171474189Y-88358241D02*
X171376529Y-89754831D01*
X172371996Y-88421022D02*
X172274337Y-89817611D01*
X171425359Y-89056536D02*
X172371996Y-88421022D01*
X172274337Y-89817611D02*
X171425359Y-89056536D01*
X123960000Y-108287813D02*
X123960000Y-109287813D01*
X109960000Y-100787813D02*
X109960000Y-100287813D01*
X115460000Y-94087813D02*
X114960000Y-94587813D01*
X118960000Y-94587813D02*
X118460000Y-94087813D01*
X118460000Y-98587813D02*
X115960000Y-98587813D01*
X123960000Y-109287813D02*
X122960000Y-109287813D01*
X109960000Y-96087813D02*
X114460000Y-96087813D01*
X114960000Y-95587813D02*
X114960000Y-94587813D01*
X118960000Y-98087813D02*
X118460000Y-98587813D01*
X110960000Y-109287813D02*
X109960000Y-109287813D01*
X109960000Y-109287813D02*
X109960000Y-108287813D01*
X118460000Y-94087813D02*
X115460000Y-94087813D01*
X122960000Y-95287813D02*
X123960000Y-95287813D01*
X114460000Y-100787813D02*
X109960000Y-100787813D01*
X109960000Y-95287813D02*
X110960000Y-95287813D01*
X109960000Y-96287813D02*
X109960000Y-95287813D01*
X123960000Y-95287813D02*
X123960000Y-96287813D01*
X109960000Y-96687813D02*
X109960000Y-96087813D01*
X114460000Y-100087813D02*
X114460000Y-100787813D01*
X114460000Y-96087813D02*
G75*
G03*
X114960000Y-95587813I-1J500001D01*
G01*
X115960000Y-98587813D02*
G75*
G03*
X114460000Y-100087813I1J-1500001D01*
G01*
D12*
X186565000Y-58952064D02*
X186565000Y-57747936D01*
X188385000Y-58952064D02*
X188385000Y-57747936D01*
D10*
X168168000Y-126586000D02*
X168168000Y-128364000D01*
X168168000Y-128364000D02*
X165882000Y-128364000D01*
X165882000Y-128364000D02*
X165882000Y-126586000D01*
X165882000Y-126586000D02*
X168168000Y-126586000D01*
X190584023Y-103328421D02*
X189819250Y-102482772D01*
X189819250Y-102482772D02*
X190827131Y-101949690D01*
X190827131Y-101949690D02*
X190584023Y-103328421D01*
X189940804Y-101793406D02*
X189697696Y-103172137D01*
X152470000Y-94680000D02*
X152470000Y-96080000D01*
X153370000Y-94680000D02*
X153370000Y-96080000D01*
X153370000Y-96080000D02*
X152470000Y-95380000D01*
X152470000Y-95380000D02*
X153370000Y-94680000D01*
X97871410Y-125986181D02*
X98665230Y-125167737D01*
X97773989Y-125292993D02*
X97968831Y-126679368D01*
X98860072Y-126554112D02*
X97871410Y-125986181D01*
X98665230Y-125167737D02*
X98860072Y-126554112D01*
X117484337Y-123312389D02*
X117581996Y-124708978D01*
X116635359Y-124073464D02*
X117484337Y-123312389D01*
X117581996Y-124708978D02*
X116635359Y-124073464D01*
X116586529Y-123375169D02*
X116684189Y-124771759D01*
X191526163Y-80972878D02*
X187094528Y-80191461D01*
X196426648Y-79095314D02*
X195847420Y-79500894D01*
X187875945Y-75759826D02*
X188049593Y-74775018D01*
X192921537Y-75938702D02*
X193095185Y-74953894D01*
X196628837Y-75069259D02*
X193674413Y-74548314D01*
X185618518Y-88562327D02*
X185792167Y-87577519D01*
X199579475Y-90008594D02*
X199405827Y-90993402D01*
X201836902Y-77206093D02*
X201663253Y-78190901D01*
X187806486Y-76153749D02*
X187910674Y-75562865D01*
X193674413Y-74548314D02*
X193095185Y-74953894D01*
X188049593Y-74775018D02*
X189034401Y-74948667D01*
X197034416Y-75648487D02*
X196628837Y-75069259D01*
X195847420Y-79500894D02*
X193385401Y-79066773D01*
X187910674Y-75562865D02*
X192342309Y-76344281D01*
X200852094Y-77032445D02*
X201836902Y-77206093D01*
X199405827Y-90993402D02*
X198421019Y-90819753D01*
X191647717Y-80283512D02*
X191526163Y-80972878D01*
X186603326Y-88735975D02*
X185618518Y-88562327D01*
X187094528Y-80191461D02*
X187181352Y-79699057D01*
X192342309Y-76344280D02*
G75*
G03*
X192921537Y-75938702I86824J492404D01*
G01*
X193385401Y-79066773D02*
G75*
G03*
X191647717Y-80283512I-260472J-1477213D01*
G01*
X134420000Y-67970000D02*
X134420000Y-69370000D01*
X135320000Y-69370000D02*
X134420000Y-68670000D01*
X134420000Y-68670000D02*
X135320000Y-67970000D01*
X135320000Y-67970000D02*
X135320000Y-69370000D01*
X118960000Y-77618484D02*
X118460000Y-77118484D01*
X118460000Y-81618484D02*
X115960000Y-81618484D01*
X123960000Y-92318484D02*
X122960000Y-92318484D01*
X123960000Y-78318484D02*
X123960000Y-79318484D01*
X109960000Y-92318484D02*
X109960000Y-91318484D01*
X114460000Y-83818484D02*
X109960000Y-83818484D01*
X109960000Y-79318484D02*
X109960000Y-78318484D01*
X115460000Y-77118484D02*
X114960000Y-77618484D01*
X109960000Y-78318484D02*
X110960000Y-78318484D01*
X122960000Y-78318484D02*
X123960000Y-78318484D01*
X109960000Y-83818484D02*
X109960000Y-83318484D01*
X110960000Y-92318484D02*
X109960000Y-92318484D01*
X123960000Y-91318484D02*
X123960000Y-92318484D01*
X109960000Y-79118484D02*
X114460000Y-79118484D01*
X114960000Y-78618484D02*
X114960000Y-77618484D01*
X118960000Y-81118484D02*
X118460000Y-81618484D01*
X109960000Y-79718484D02*
X109960000Y-79118484D01*
X114460000Y-83118484D02*
X114460000Y-83818484D01*
X118460000Y-77118484D02*
X115460000Y-77118484D01*
X115960000Y-81618484D02*
G75*
G03*
X114460000Y-83118484I1J-1500001D01*
G01*
X114460000Y-79118484D02*
G75*
G03*
X114960000Y-78618484I-1J500001D01*
G01*
X87725000Y-94935000D02*
X87725000Y-101685000D01*
X84875000Y-101685000D02*
X84825000Y-94935000D01*
X87725000Y-101685000D02*
X84875000Y-101685000D01*
X84825000Y-94935000D02*
X87725000Y-94935000D01*
X127952431Y-58632647D02*
X128952431Y-58632647D01*
X132452431Y-63432647D02*
X132452431Y-64132647D01*
X127952431Y-60032647D02*
X127952431Y-59432647D01*
X136452431Y-61932647D02*
X133952431Y-61932647D01*
X141952431Y-72632647D02*
X140952431Y-72632647D01*
X127952431Y-64132647D02*
X127952431Y-63632647D01*
X140952431Y-58632647D02*
X141952431Y-58632647D01*
X133452431Y-57432647D02*
X132952431Y-57932647D01*
X141952431Y-58632647D02*
X141952431Y-59632647D01*
X136452431Y-57432647D02*
X133452431Y-57432647D01*
X141952431Y-71632647D02*
X141952431Y-72632647D01*
X128952431Y-72632647D02*
X127952431Y-72632647D01*
X132952431Y-58932647D02*
X132952431Y-57932647D01*
X136952431Y-57932647D02*
X136452431Y-57432647D01*
X127952431Y-72632647D02*
X127952431Y-71632647D01*
X136952431Y-61432647D02*
X136452431Y-61932647D01*
X127952431Y-59632647D02*
X127952431Y-58632647D01*
X127952431Y-59432647D02*
X132452431Y-59432647D01*
X132452431Y-64132647D02*
X127952431Y-64132647D01*
X132452431Y-59432647D02*
G75*
G03*
X132952431Y-58932647I-1J500001D01*
G01*
X133952431Y-61932647D02*
G75*
G03*
X132452431Y-63432647I1J-1500001D01*
G01*
X117390000Y-105970000D02*
X116490000Y-105270000D01*
X117390000Y-104570000D02*
X117390000Y-105970000D01*
X116490000Y-104570000D02*
X116490000Y-105970000D01*
X116490000Y-105270000D02*
X117390000Y-104570000D01*
X117390000Y-71970000D02*
X116490000Y-71270000D01*
X117390000Y-70570000D02*
X117390000Y-71970000D01*
X116490000Y-71270000D02*
X117390000Y-70570000D01*
X116490000Y-70570000D02*
X116490000Y-71970000D01*
X173474337Y-72817611D02*
X172625359Y-72056536D01*
X173571996Y-71421022D02*
X173474337Y-72817611D01*
X172625359Y-72056536D02*
X173571996Y-71421022D01*
X172674189Y-71358241D02*
X172576529Y-72754831D01*
X123960000Y-75313872D02*
X122960000Y-75313872D01*
X118960000Y-60613872D02*
X118460000Y-60113872D01*
X109960000Y-66813872D02*
X109960000Y-66313872D01*
X114960000Y-61613872D02*
X114960000Y-60613872D01*
X118460000Y-60113872D02*
X115460000Y-60113872D01*
X109960000Y-62713872D02*
X109960000Y-62113872D01*
X115460000Y-60113872D02*
X114960000Y-60613872D01*
X109960000Y-61313872D02*
X110960000Y-61313872D01*
X118460000Y-64613872D02*
X115960000Y-64613872D01*
X110960000Y-75313872D02*
X109960000Y-75313872D01*
X122960000Y-61313872D02*
X123960000Y-61313872D01*
X123960000Y-74313872D02*
X123960000Y-75313872D01*
X109960000Y-75313872D02*
X109960000Y-74313872D01*
X118960000Y-64113872D02*
X118460000Y-64613872D01*
X109960000Y-62313872D02*
X109960000Y-61313872D01*
X123960000Y-61313872D02*
X123960000Y-62313872D01*
X114460000Y-66813872D02*
X109960000Y-66813872D01*
X114460000Y-66113872D02*
X114460000Y-66813872D01*
X109960000Y-62113872D02*
X114460000Y-62113872D01*
X114460000Y-62113872D02*
G75*
G03*
X114960000Y-61613872I-1J500001D01*
G01*
X115960000Y-64613872D02*
G75*
G03*
X114460000Y-66113872I1J-1500001D01*
G01*
X123584055Y-113699637D02*
X123636391Y-114698266D01*
X118028789Y-112789129D02*
X115032901Y-112946137D01*
X110335945Y-128413153D02*
X110283609Y-127414524D01*
X118264301Y-117282962D02*
X115767727Y-117413802D01*
X109676512Y-115830421D02*
X109645110Y-115231244D01*
X114384922Y-119689291D02*
X109891089Y-119924802D01*
X124264422Y-126681821D02*
X124316758Y-127680450D01*
X109891089Y-119924802D02*
X109864921Y-119425488D01*
X114612090Y-114470249D02*
X114559754Y-113471619D01*
X124316758Y-127680450D02*
X123318129Y-127732786D01*
X114348287Y-118990250D02*
X114384922Y-119689291D01*
X118737448Y-116757479D02*
X118264301Y-117282962D01*
X109655578Y-115430969D02*
X109603242Y-114432340D01*
X109645110Y-115231244D02*
X114138943Y-114995732D01*
X109603242Y-114432340D02*
X110601871Y-114380004D01*
X122585426Y-113751973D02*
X123584055Y-113699637D01*
X118554272Y-113262276D02*
X118028789Y-112789129D01*
X115032901Y-112946137D02*
X114559754Y-113471619D01*
X111334574Y-128360817D02*
X110335945Y-128413153D01*
X115767727Y-117413802D02*
G75*
G03*
X114348287Y-118990250I78505J-1497945D01*
G01*
X114138943Y-114995732D02*
G75*
G03*
X114612090Y-114470249I-26169J499316D01*
G01*
X141952431Y-88637259D02*
X141952431Y-89637259D01*
X141952431Y-75637259D02*
X141952431Y-76637259D01*
X136452431Y-74437259D02*
X133452431Y-74437259D01*
X127952431Y-89637259D02*
X127952431Y-88637259D01*
X141952431Y-89637259D02*
X140952431Y-89637259D01*
X127952431Y-76637259D02*
X127952431Y-75637259D01*
X128952431Y-89637259D02*
X127952431Y-89637259D01*
X127952431Y-75637259D02*
X128952431Y-75637259D01*
X127952431Y-77037259D02*
X127952431Y-76437259D01*
X140952431Y-75637259D02*
X141952431Y-75637259D01*
X136452431Y-78937259D02*
X133952431Y-78937259D01*
X127952431Y-76437259D02*
X132452431Y-76437259D01*
X132452431Y-80437259D02*
X132452431Y-81137259D01*
X132452431Y-81137259D02*
X127952431Y-81137259D01*
X132952431Y-75937259D02*
X132952431Y-74937259D01*
X136952431Y-74937259D02*
X136452431Y-74437259D01*
X136952431Y-78437259D02*
X136452431Y-78937259D01*
X133452431Y-74437259D02*
X132952431Y-74937259D01*
X127952431Y-81137259D02*
X127952431Y-80637259D01*
X132452431Y-76437259D02*
G75*
G03*
X132952431Y-75937259I-1J500001D01*
G01*
X133952431Y-78937259D02*
G75*
G03*
X132452431Y-80437259I1J-1500001D01*
G01*
X88228900Y-86650000D02*
X88228900Y-56170000D01*
X90768900Y-56170000D02*
X90768900Y-86650000D01*
X103448900Y-56170000D02*
X105988900Y-56170000D01*
X90768900Y-86650000D02*
X88228900Y-86650000D01*
X103448900Y-86650000D02*
X103448900Y-56170000D01*
X88228900Y-56170000D02*
X90768900Y-56170000D01*
X105988900Y-86650000D02*
X103448900Y-86650000D01*
X105988900Y-56170000D02*
X105988900Y-86650000D01*
X170229500Y-106037950D02*
X171176137Y-105402436D01*
X170278330Y-105339655D02*
X170180670Y-106736245D01*
X171176137Y-105402436D02*
X171078478Y-106799025D01*
X171078478Y-106799025D02*
X170229500Y-106037950D01*
D15*
X98213998Y-104800208D02*
X99383171Y-103665422D01*
X99383171Y-103631035D02*
X98661036Y-103631035D01*
D12*
X96930000Y-101150000D02*
X96930000Y-102150000D01*
D15*
X94500157Y-99607706D02*
X94500157Y-99607706D01*
X98213998Y-104800208D02*
X98213998Y-104800208D01*
X94500157Y-103665422D02*
X95669330Y-104800208D01*
X98213998Y-98438535D02*
X95669330Y-98438535D01*
X98213998Y-98438535D02*
X98213998Y-98438535D01*
D12*
X103230000Y-103450000D02*
X103230000Y-108350000D01*
X103230000Y-108350000D02*
X90630000Y-108350000D01*
D15*
X99383171Y-104353170D02*
X99383171Y-103631035D01*
D12*
X103230000Y-99750000D02*
X103230000Y-94950000D01*
X90630000Y-94950000D02*
X93430000Y-94950000D01*
D15*
X99383171Y-99607706D02*
X98213998Y-98438535D01*
X99383171Y-103631035D02*
X99383171Y-103631035D01*
D12*
X103230000Y-94950000D02*
X100730000Y-94950000D01*
D15*
X95669330Y-98438535D02*
X94500157Y-99607706D01*
X95669330Y-98438535D02*
X95669330Y-98438535D01*
D12*
X90630000Y-108350000D02*
X90630000Y-103450000D01*
D15*
X94500157Y-98885571D02*
X94500157Y-99607706D01*
X95669330Y-104800208D02*
X95669330Y-104800208D01*
X95669330Y-104800208D02*
X98213998Y-104800208D01*
X94500157Y-99607706D02*
X95222293Y-99607706D01*
D12*
X97430000Y-101650000D02*
X96430000Y-101650000D01*
X90630000Y-99850000D02*
X90630000Y-94950000D01*
D15*
X169777254Y-60300649D02*
X170793254Y-60300649D01*
D12*
X167035254Y-58895449D02*
X167035254Y-56800649D01*
X170285254Y-59070649D02*
X169460454Y-59895449D01*
X170285254Y-56550649D02*
X170285254Y-59070649D01*
X167035254Y-56800649D02*
X168035254Y-55800649D01*
X169535254Y-55800649D02*
X170285254Y-56550649D01*
D15*
X170285254Y-59792649D02*
X170285254Y-60808649D01*
D12*
X168035254Y-59895449D02*
X169460454Y-59895449D01*
D15*
X166777254Y-60300649D02*
X167793254Y-60300649D01*
D12*
X168035254Y-55800649D02*
X169535254Y-55800649D01*
X168035254Y-59895449D02*
X167035254Y-58895449D01*
X185885000Y-58952064D02*
X185885000Y-57747936D01*
X184065000Y-58952064D02*
X184065000Y-57747936D01*
D10*
X193498461Y-95852971D02*
X192919233Y-96258551D01*
X184947758Y-92517483D02*
X185121406Y-91532675D01*
X184166341Y-96949118D02*
X184253165Y-96456714D01*
X190746226Y-91305971D02*
X190166998Y-91711551D01*
X188719530Y-97041169D02*
X188597976Y-97730535D01*
X188597976Y-97730535D02*
X184166341Y-96949118D01*
X184982487Y-92320522D02*
X189414122Y-93101938D01*
X194106229Y-92406144D02*
X193700650Y-91826916D01*
X183675139Y-105493632D02*
X182690331Y-105319984D01*
X189993350Y-92696359D02*
X190166998Y-91711551D01*
X182690331Y-105319984D02*
X182863980Y-104335176D01*
X192919233Y-96258551D02*
X190457214Y-95824430D01*
X185121406Y-91532675D02*
X186106214Y-91706324D01*
X196651288Y-106766251D02*
X196477640Y-107751059D01*
X193700650Y-91826916D02*
X190746226Y-91305971D01*
X197923907Y-93790102D02*
X198908715Y-93963750D01*
X184878299Y-92911406D02*
X184982487Y-92320522D01*
X196477640Y-107751059D02*
X195492832Y-107577410D01*
X198908715Y-93963750D02*
X198735066Y-94948558D01*
X190457214Y-95824430D02*
G75*
G03*
X188719530Y-97041169I-260472J-1477213D01*
G01*
X189414122Y-93101937D02*
G75*
G03*
X189993350Y-92696359I86824J492404D01*
G01*
D17*
X178719019Y-58478792D03*
D18*
X181243019Y-58478792D03*
D17*
X173004504Y-58168721D03*
D18*
X175528504Y-58168721D03*
D19*
X109570000Y-56820000D03*
X116070000Y-56820000D03*
D20*
X88172500Y-58710000D03*
X104718900Y-57440000D03*
X104718900Y-59980000D03*
X88172500Y-61250000D03*
X88172500Y-63790000D03*
X104718900Y-62520000D03*
X104718900Y-65060000D03*
X88172500Y-66330000D03*
X104718900Y-67600000D03*
X88172500Y-68870000D03*
X88172500Y-71410000D03*
X104718900Y-70140000D03*
X104718900Y-72680000D03*
X88172500Y-73950000D03*
X88172500Y-76490000D03*
X104718900Y-75220000D03*
X88172500Y-79030000D03*
X104718900Y-77760000D03*
X88172500Y-81570000D03*
X104718900Y-80300000D03*
X88172500Y-84110000D03*
X104718900Y-82840000D03*
X104718900Y-85380000D03*
X88172500Y-86650000D03*
X103412500Y-86650000D03*
X89498900Y-85380000D03*
X89498900Y-82840000D03*
X103412500Y-84110000D03*
X89498900Y-80300000D03*
X103412500Y-81570000D03*
X89498900Y-77760000D03*
X103412500Y-79030000D03*
X103412500Y-76490000D03*
X89498900Y-75220000D03*
X89498900Y-72680000D03*
X103412500Y-73950000D03*
X103412500Y-71410000D03*
X89498900Y-70140000D03*
X89498900Y-67600000D03*
X103412500Y-68870000D03*
X103412500Y-66330000D03*
X89498900Y-65060000D03*
X103412500Y-63790000D03*
X89498900Y-62520000D03*
X103412500Y-61250000D03*
X89498900Y-59980000D03*
X89498900Y-57440000D03*
X103412500Y-58710000D03*
D17*
X167261254Y-57800649D03*
D18*
X169785254Y-57800649D03*
%LPC*%
D17*
X178719019Y-58478792D03*
D18*
X181243019Y-58478792D03*
D21*
X151270000Y-61380000D03*
X154670000Y-61380000D03*
X133220000Y-102670000D03*
X136620000Y-102670000D03*
D22*
X166524620Y-129250000D03*
X167525380Y-129250000D03*
D23*
X147944862Y-54615117D03*
X157944862Y-54615117D03*
D24*
X152944862Y-58365117D03*
D23*
X152944862Y-52415117D03*
D25*
X147444862Y-58365117D03*
X158444862Y-58365117D03*
D26*
X156219862Y-52415117D03*
D27*
X152944862Y-64265117D03*
D26*
X144669862Y-54615117D03*
D27*
X157944862Y-62165117D03*
X147944862Y-62165117D03*
D28*
X191611654Y-85569596D03*
X194960000Y-86160000D03*
D17*
X173004504Y-58168721D03*
D18*
X175528504Y-58168721D03*
D19*
X109570000Y-56820000D03*
X116070000Y-56820000D03*
D23*
X183563206Y-111802978D03*
D25*
X182419621Y-115409183D03*
D24*
X187836064Y-116364248D03*
D23*
X193411283Y-113539460D03*
X188869271Y-110504642D03*
D25*
X193252507Y-117319313D03*
D27*
X186811540Y-122174614D03*
D29*
X192094516Y-111073340D03*
D27*
X182252162Y-119238277D03*
X192100240Y-120974758D03*
D29*
X180337961Y-111234280D03*
D30*
X189975000Y-59750000D03*
X189975000Y-56950000D03*
D23*
X134952431Y-93691867D03*
X129952431Y-95891867D03*
D25*
X140452431Y-99641867D03*
D23*
X139952431Y-95891867D03*
D24*
X134952431Y-99641867D03*
D25*
X129452431Y-99641867D03*
D26*
X138227431Y-93691867D03*
D27*
X134952431Y-105541867D03*
X129952431Y-103441867D03*
D26*
X126677431Y-95891867D03*
D27*
X139952431Y-103441867D03*
D21*
X115290000Y-88370000D03*
X118690000Y-88370000D03*
X133220000Y-85670000D03*
X136620000Y-85670000D03*
D31*
X126072491Y-90139683D03*
X164027509Y-93460317D03*
D32*
X163225000Y-128350000D03*
X161225000Y-128350000D03*
D23*
X171352345Y-97128458D03*
X176186701Y-99671881D03*
D24*
X170937294Y-103063964D03*
D23*
X166211061Y-98974316D03*
D25*
X165450692Y-102680303D03*
X176423896Y-103447625D03*
D33*
X174619367Y-97356910D03*
D27*
X170525731Y-108949592D03*
X165684399Y-106505925D03*
X175660040Y-107203490D03*
D33*
X162944038Y-98745864D03*
D34*
X194398013Y-57553692D03*
D28*
X185685827Y-119064798D03*
X189034173Y-119655202D03*
D23*
X157944862Y-71584448D03*
D24*
X152944862Y-75334448D03*
D25*
X147444862Y-75334448D03*
D23*
X147944862Y-71584448D03*
D25*
X158444862Y-75334448D03*
D23*
X152944862Y-69384448D03*
D27*
X152944862Y-81234448D03*
D26*
X156219862Y-69384448D03*
D27*
X157944862Y-79134448D03*
X147944862Y-79134448D03*
D26*
X144669862Y-71584448D03*
D34*
X148182160Y-105392393D03*
D23*
X178550416Y-65768492D03*
X173716060Y-63225069D03*
D24*
X173301009Y-69160575D03*
D25*
X178787611Y-69544236D03*
D23*
X168574776Y-65070927D03*
D25*
X167814407Y-68776914D03*
D27*
X172889446Y-75046203D03*
D33*
X176983082Y-63453521D03*
D27*
X168048114Y-72602536D03*
X178023755Y-73300101D03*
D33*
X165307753Y-64842475D03*
D23*
X177350913Y-82737828D03*
X167375273Y-82040263D03*
X172516557Y-80194405D03*
D25*
X166614904Y-85746250D03*
X177588108Y-86513572D03*
D24*
X172101506Y-86129911D03*
D27*
X171689943Y-92015539D03*
D33*
X175783579Y-80422857D03*
D27*
X176824252Y-90269437D03*
D33*
X164108250Y-81811811D03*
D27*
X166848611Y-89571872D03*
D24*
X152944862Y-92339060D03*
D25*
X158444862Y-92339060D03*
D23*
X157944862Y-88589060D03*
X147944862Y-88589060D03*
D25*
X147444862Y-92339060D03*
D23*
X152944862Y-86389060D03*
D26*
X156219862Y-86389060D03*
D27*
X152944862Y-98239060D03*
D26*
X144669862Y-88589060D03*
D27*
X157944862Y-96139060D03*
X147944862Y-96139060D03*
D25*
X103390943Y-122266583D03*
D23*
X102373910Y-118622664D03*
D25*
X92497995Y-123797487D03*
D23*
X92471230Y-120014395D03*
X97116389Y-117139940D03*
D24*
X97944469Y-123032035D03*
D27*
X98765590Y-128874617D03*
D35*
X100359517Y-116684148D03*
X89228102Y-120470187D03*
D27*
X93521986Y-127490919D03*
X103424667Y-126099188D03*
D21*
X151270000Y-78380000D03*
X154670000Y-78380000D03*
D34*
X88900000Y-114030000D03*
D36*
X170228282Y-88972828D03*
X173620000Y-89210000D03*
D24*
X116960000Y-102287813D03*
D25*
X111460000Y-102287813D03*
D23*
X116960000Y-96337813D03*
X111960000Y-98537813D03*
D25*
X122460000Y-102287813D03*
D23*
X121960000Y-98537813D03*
D26*
X120235000Y-96337813D03*
D27*
X116960000Y-108187813D03*
X121960000Y-106087813D03*
D26*
X108685000Y-98537813D03*
D27*
X111960000Y-106087813D03*
D30*
X187475000Y-59750000D03*
X187475000Y-56950000D03*
D22*
X166524620Y-127475000D03*
X167525380Y-127475000D03*
D28*
X188637481Y-102274394D03*
X191985827Y-102864798D03*
D21*
X151270000Y-95380000D03*
X154670000Y-95380000D03*
D37*
X96683088Y-126153188D03*
X100050000Y-125680000D03*
D38*
X115438282Y-124157172D03*
X118830000Y-123920000D03*
D23*
X189454852Y-78322940D03*
X194760917Y-77024604D03*
D25*
X188311267Y-81929145D03*
D24*
X193727710Y-82884210D03*
D23*
X199302929Y-80059422D03*
D25*
X199144153Y-83839275D03*
D27*
X192703186Y-88694576D03*
D29*
X197986162Y-77593302D03*
D27*
X188143808Y-85758239D03*
D29*
X186229607Y-77754242D03*
D27*
X197991886Y-87494720D03*
D34*
X121652143Y-57553692D03*
D21*
X133220000Y-68670000D03*
X136620000Y-68670000D03*
D23*
X121960000Y-81568484D03*
X111960000Y-81568484D03*
D24*
X116960000Y-85318484D03*
D25*
X122460000Y-85318484D03*
X111460000Y-85318484D03*
D23*
X116960000Y-79368484D03*
D26*
X120235000Y-79368484D03*
D27*
X116960000Y-91218484D03*
X111960000Y-89118484D03*
D26*
X108685000Y-81568484D03*
D27*
X121960000Y-89118484D03*
D39*
X86425000Y-96685000D03*
X86375000Y-99685000D03*
D40*
X88225000Y-95935000D03*
X88225000Y-98935000D03*
X88225000Y-100435000D03*
D41*
X86325000Y-102285000D03*
X86325000Y-94335000D03*
D23*
X134952431Y-59682647D03*
X139952431Y-61882647D03*
D24*
X134952431Y-65632647D03*
D25*
X140452431Y-65632647D03*
X129452431Y-65632647D03*
D23*
X129952431Y-61882647D03*
D27*
X134952431Y-71532647D03*
D26*
X138227431Y-59682647D03*
D27*
X129952431Y-69432647D03*
X139952431Y-69432647D03*
D26*
X126677431Y-61882647D03*
D21*
X115290000Y-105270000D03*
X118690000Y-105270000D03*
X115290000Y-71270000D03*
X118690000Y-71270000D03*
D36*
X171428282Y-71972828D03*
X174820000Y-72210000D03*
D23*
X116960000Y-62363872D03*
X111960000Y-64563872D03*
D24*
X116960000Y-68313872D03*
D25*
X122460000Y-68313872D03*
D23*
X121960000Y-64563872D03*
D25*
X111460000Y-68313872D03*
D26*
X120235000Y-62363872D03*
D27*
X116960000Y-74213872D03*
X121960000Y-72113872D03*
D26*
X108685000Y-64563872D03*
D27*
X111960000Y-72113872D03*
D23*
X116648601Y-115114549D03*
X121756888Y-117049854D03*
X111770592Y-117573214D03*
D25*
X111467538Y-121344243D03*
X122452462Y-120768547D03*
D24*
X116960000Y-121056395D03*
D42*
X119919113Y-114943149D03*
D27*
X117268782Y-126948309D03*
D42*
X108500081Y-117744614D03*
D27*
X112165729Y-125112867D03*
X122152024Y-124589507D03*
D34*
X194398013Y-127759458D03*
D25*
X129452431Y-82637259D03*
X140452431Y-82637259D03*
D23*
X139952431Y-78887259D03*
D24*
X134952431Y-82637259D03*
D23*
X129952431Y-78887259D03*
X134952431Y-76687259D03*
D27*
X134952431Y-88537259D03*
D26*
X138227431Y-76687259D03*
D27*
X129952431Y-86437259D03*
D26*
X126677431Y-78887259D03*
D27*
X139952431Y-86437259D03*
D20*
X88172500Y-58710000D03*
X104718900Y-57440000D03*
X104718900Y-59980000D03*
X88172500Y-61250000D03*
X88172500Y-63790000D03*
X104718900Y-62520000D03*
X104718900Y-65060000D03*
X88172500Y-66330000D03*
X104718900Y-67600000D03*
X88172500Y-68870000D03*
X88172500Y-71410000D03*
X104718900Y-70140000D03*
X104718900Y-72680000D03*
X88172500Y-73950000D03*
X88172500Y-76490000D03*
X104718900Y-75220000D03*
X88172500Y-79030000D03*
X104718900Y-77760000D03*
X88172500Y-81570000D03*
X104718900Y-80300000D03*
X88172500Y-84110000D03*
X104718900Y-82840000D03*
X104718900Y-85380000D03*
X88172500Y-86650000D03*
X103412500Y-86650000D03*
X89498900Y-85380000D03*
X89498900Y-82840000D03*
X103412500Y-84110000D03*
X89498900Y-80300000D03*
X103412500Y-81570000D03*
X89498900Y-77760000D03*
X103412500Y-79030000D03*
X103412500Y-76490000D03*
X89498900Y-75220000D03*
X89498900Y-72680000D03*
X103412500Y-73950000D03*
X103412500Y-71410000D03*
X89498900Y-70140000D03*
X89498900Y-67600000D03*
X103412500Y-68870000D03*
X103412500Y-66330000D03*
X89498900Y-65060000D03*
X103412500Y-63790000D03*
X89498900Y-62520000D03*
X103412500Y-61250000D03*
X89498900Y-59980000D03*
X89498900Y-57440000D03*
X103412500Y-58710000D03*
D36*
X169032423Y-105954242D03*
X172424141Y-106191414D03*
D43*
X99430000Y-94150000D03*
D19*
X94430000Y-94150000D03*
X96930000Y-94150000D03*
D44*
X91330000Y-101650000D03*
X102530000Y-101650000D03*
D17*
X167261254Y-57800649D03*
D18*
X169785254Y-57800649D03*
D30*
X184975000Y-59750000D03*
X184975000Y-56950000D03*
D23*
X196374742Y-96817079D03*
X186526665Y-95080597D03*
X191832730Y-93782261D03*
D24*
X190799523Y-99641867D03*
D25*
X185383080Y-98686802D03*
X196215966Y-100596932D03*
D29*
X195057975Y-94350959D03*
D27*
X189774999Y-105452233D03*
X185215621Y-102515896D03*
D29*
X183301420Y-94511899D03*
D27*
X195063699Y-104252377D03*
D45*
X171900000Y-127875000D03*
D34*
X178900000Y-127875000D03*
M02*
