<?xml version="1.0" encoding="UTF-8"?>
<svg id="Ebene_1_Kopie" data-name="Ebene 1 Kopie" xmlns="http://www.w3.org/2000/svg" width="294.81mm" height="132.19mm" viewBox="0 0 835.67 374.71">
  <defs>
    <style>
      .cls-1 {
        fill: #c9d1d9;
      }
    </style>
  </defs>
  <path class="cls-1" d="M832.83,369.04h-177.18l93.56-187.12h65.16c1.57,0,2.83-1.27,2.83-2.83s-1.27-2.83-2.83-2.83h-62.32L835.37,9.61c.44-.88,.39-1.92-.12-2.76-.52-.84-1.43-1.34-2.41-1.34H344.34c-.76,0-1.49,.31-2.02,.85l-108.33,110.16c-.52,.53-.81,1.24-.81,1.99v145.05c0,.75,.3,1.47,.83,2l103.49,103.49H187.44V8.34c0-.06-.01-.11-.02-.16,0-.1-.01-.21-.03-.31-.01-.09-.04-.17-.06-.26-.02-.09-.05-.18-.08-.26-.03-.09-.07-.17-.11-.25-.04-.08-.08-.16-.13-.24-.05-.08-.1-.15-.15-.22-.06-.07-.11-.15-.18-.22-.06-.07-.13-.13-.2-.19-.07-.06-.14-.12-.21-.17-.08-.06-.17-.11-.26-.16-.05-.03-.09-.06-.14-.09-.03-.01-.05-.02-.08-.03-.09-.04-.19-.08-.29-.11-.08-.03-.17-.06-.25-.08-.08-.02-.17-.03-.26-.04-.1-.01-.2-.03-.31-.03-.03,0-.05,0-.08,0-.06,0-.11,.01-.17,.02-.1,0-.2,.01-.3,.03-.09,.02-.18,.04-.27,.06-.09,.02-.17,.05-.26,.08-.09,.03-.17,.07-.26,.11-.08,.04-.16,.08-.23,.13-.08,.05-.15,.1-.23,.16-.07,.06-.14,.11-.21,.17-.07,.06-.13,.13-.19,.2-.06,.07-.12,.13-.17,.2-.06,.08-.11,.17-.17,.26-.03,.05-.06,.09-.09,.14L5.67,359.87V2.83c0-1.57-1.27-2.83-2.83-2.83S0,1.27,0,2.83V371.88c0,1.31,.9,2.46,2.18,2.76,.22,.05,.44,.08,.65,.08,1.05,0,2.05-.59,2.53-1.57L94.17,195.55l87.9,177.58s.04,.06,.06,.09c.1,.18,.21,.34,.34,.49,.03,.04,.06,.08,.1,.12,.16,.17,.34,.31,.53,.43,.05,.03,.09,.05,.14,.08,.16,.09,.33,.16,.51,.22,.06,.02,.11,.04,.17,.05,.22,.06,.45,.1,.7,.1H489.39c.75,0,1.47-.3,2-.83l108.33-108.33c.53-.53,.83-1.25,.83-2V118.51c0-.74-.29-1.46-.81-1.99L496.15,11.18h150.14V371.88c0,1.57,1.27,2.83,2.83,2.83,.35,0,.68-.07,.99-.19,.3,.11,.62,.19,.95,.19h181.77c1.57,0,2.83-1.27,2.83-2.83s-1.27-2.83-2.83-2.83ZM181.77,20.35V359.76L97.35,189.19,181.77,20.35Zm413.11,99.32v142.71l-106.67,106.67h-142.7l-106.67-106.67V119.67L345.53,11.18h142.67l106.68,108.49ZM828.25,11.18l-82.54,165.08h-50.68c-1.57,0-2.83,1.27-2.83,2.83s1.27,2.83,2.83,2.83h47.85l-90.92,181.83V11.18h176.29Z"/>
</svg>